<?xml version="1.0" encoding="UTF-8" standalone="no"?>
<!DOCTYPE svg PUBLIC "-//W3C//DTD SVG 1.1//EN"
 "http://www.w3.org/Graphics/SVG/1.1/DTD/svg11.dtd">
<!-- Generated by graphviz version 4.0.0 (20220529.0937)
 -->
<!-- Pages: 1 -->
<svg width="536pt" height="116pt"
 viewBox="0.00 0.00 535.64 116.00" xmlns="http://www.w3.org/2000/svg" xmlns:xlink="http://www.w3.org/1999/xlink">
<g id="graph0" class="graph" transform="scale(1 1) rotate(0) translate(4 112)">
<polygon fill="white" stroke="transparent" points="-4,4 -4,-112 531.64,-112 531.64,4 -4,4"/>
<!-- A -->
<g id="node1" class="node">
<title>A</title>
<ellipse fill="none" stroke="black" cx="273.5" cy="-90" rx="31.4" ry="18"/>
<text text-anchor="middle" x="273.5" y="-86.3" font-family="Times New Roman,serif" font-size="14.00">MVC</text>
</g>
<!-- B -->
<g id="node2" class="node">
<title>B</title>
<ellipse fill="none" stroke="black" cx="45.5" cy="-18" rx="45.49" ry="18"/>
<text text-anchor="middle" x="45.5" y="-14.3" font-family="Times New Roman,serif" font-size="14.00">Overview</text>
</g>
<!-- A&#45;&gt;B -->
<g id="edge1" class="edge">
<title>A&#45;&gt;B</title>
<path fill="none" stroke="black" d="M246.35,-80.82C212.09,-70.47 151.38,-52.07 99.5,-36 96.35,-35.03 93.1,-34.02 89.84,-33"/>
<polygon fill="black" stroke="black" points="90.64,-29.58 80.05,-29.93 88.55,-36.26 90.64,-29.58"/>
</g>
<!-- C -->
<g id="node3" class="node">
<title>C</title>
<ellipse fill="none" stroke="black" cx="160.5" cy="-18" rx="51.99" ry="18"/>
<text text-anchor="middle" x="160.5" y="-14.3" font-family="Times New Roman,serif" font-size="14.00">Quickstarts</text>
</g>
<!-- A&#45;&gt;C -->
<g id="edge2" class="edge">
<title>A&#45;&gt;C</title>
<path fill="none" stroke="black" d="M253.03,-76.32C236.38,-66.01 212.55,-51.24 193.24,-39.29"/>
<polygon fill="black" stroke="black" points="195.08,-36.31 184.73,-34.01 191.39,-42.26 195.08,-36.31"/>
</g>
<!-- D -->
<g id="node4" class="node">
<title>D</title>
<ellipse fill="none" stroke="black" cx="273.5" cy="-18" rx="42.79" ry="18"/>
<text text-anchor="middle" x="273.5" y="-14.3" font-family="Times New Roman,serif" font-size="14.00">Tutorials</text>
</g>
<!-- A&#45;&gt;D -->
<g id="edge3" class="edge">
<title>A&#45;&gt;D</title>
<path fill="none" stroke="black" d="M273.5,-71.7C273.5,-63.98 273.5,-54.71 273.5,-46.11"/>
<polygon fill="black" stroke="black" points="277,-46.1 273.5,-36.1 270,-46.1 277,-46.1"/>
</g>
<!-- E -->
<g id="node5" class="node">
<title>E</title>
<ellipse fill="none" stroke="black" cx="375.5" cy="-18" rx="41.69" ry="18"/>
<text text-anchor="middle" x="375.5" y="-14.3" font-family="Times New Roman,serif" font-size="14.00">Samples</text>
</g>
<!-- A&#45;&gt;E -->
<g id="edge4" class="edge">
<title>A&#45;&gt;E</title>
<path fill="none" stroke="black" d="M293.16,-75.5C308.05,-65.29 328.75,-51.08 345.68,-39.46"/>
<polygon fill="black" stroke="black" points="347.86,-42.21 354.13,-33.66 343.9,-36.44 347.86,-42.21"/>
</g>
<!-- F -->
<g id="node6" class="node">
<title>F</title>
<ellipse fill="none" stroke="black" cx="481.5" cy="-18" rx="46.29" ry="18"/>
<text text-anchor="middle" x="481.5" y="-14.3" font-family="Times New Roman,serif" font-size="14.00">Concepts</text>
</g>
<!-- A&#45;&gt;F -->
<g id="edge5" class="edge">
<title>A&#45;&gt;F</title>
<path fill="none" stroke="black" d="M299.84,-80.13C334.65,-68.42 396.44,-47.62 438.18,-33.58"/>
<polygon fill="black" stroke="black" points="439.44,-36.85 447.8,-30.34 437.21,-30.21 439.44,-36.85"/>
</g>
</g>
</svg>
