<svg aria-labelledby="chart-title-mermaid-1677439830546" aria-roledescription="er" role="graphics-document document" viewBox="0 -61.66666793823242 1340 2276.666748046875" style="max-width: 1340px; background-color: rgb(255, 255, 255);" xmlns:xlink="http://www.w3.org/1999/xlink" xmlns="http://www.w3.org/2000/svg" width="100%" id="mermaid-1677439830546"><title id="chart-title-mermaid-1677439830546">Article (Doc) and Learn (Unit) Model [2.26.23]</title><style>#mermaid-1677439830546{font-family:"trebuchet ms",verdana,arial,sans-serif;font-size:16px;fill:#333;}#mermaid-1677439830546 .error-icon{fill:#552222;}#mermaid-1677439830546 .error-text{fill:#552222;stroke:#552222;}#mermaid-1677439830546 .edge-thickness-normal{stroke-width:2px;}#mermaid-1677439830546 .edge-thickness-thick{stroke-width:3.5px;}#mermaid-1677439830546 .edge-pattern-solid{stroke-dasharray:0;}#mermaid-1677439830546 .edge-pattern-dashed{stroke-dasharray:3;}#mermaid-1677439830546 .edge-pattern-dotted{stroke-dasharray:2;}#mermaid-1677439830546 .marker{fill:#333333;stroke:#333333;}#mermaid-1677439830546 .marker.cross{stroke:#333333;}#mermaid-1677439830546 svg{font-family:"trebuchet ms",verdana,arial,sans-serif;font-size:16px;}#mermaid-1677439830546 .entityBox{fill:#ECECFF;stroke:#9370DB;}#mermaid-1677439830546 .attributeBoxOdd{fill:#ffffff;stroke:#9370DB;}#mermaid-1677439830546 .attributeBoxEven{fill:#f2f2f2;stroke:#9370DB;}#mermaid-1677439830546 .relationshipLabelBox{fill:hsl(80, 100%, 96.2745098039%);opacity:0.7;background-color:hsl(80, 100%, 96.2745098039%);}#mermaid-1677439830546 .relationshipLabelBox rect{opacity:0.5;}#mermaid-1677439830546 .relationshipLine{stroke:#333333;}#mermaid-1677439830546 .entityTitleText{text-anchor:middle;font-size:18px;fill:#333;}#mermaid-1677439830546 :root{--mermaid-font-family:"trebuchet ms",verdana,arial,sans-serif;}</style><g/><defs><marker orient="auto" markerHeight="18" markerWidth="18" refY="9" refX="0" id="ONLY_ONE_START"><path d="M9,0 L9,18 M15,0 L15,18" fill="none" stroke="gray"/></marker></defs><defs><marker orient="auto" markerHeight="18" markerWidth="18" refY="9" refX="18" id="ONLY_ONE_END"><path d="M3,0 L3,18 M9,0 L9,18" fill="none" stroke="gray"/></marker></defs><defs><marker orient="auto" markerHeight="18" markerWidth="30" refY="9" refX="0" id="ZERO_OR_ONE_START"><circle r="6" cy="9" cx="21" fill="white" stroke="gray"/><path d="M9,0 L9,18" fill="none" stroke="gray"/></marker></defs><defs><marker orient="auto" markerHeight="18" markerWidth="30" refY="9" refX="30" id="ZERO_OR_ONE_END"><circle r="6" cy="9" cx="9" fill="white" stroke="gray"/><path d="M21,0 L21,18" fill="none" stroke="gray"/></marker></defs><defs><marker orient="auto" markerHeight="36" markerWidth="45" refY="18" refX="18" id="ONE_OR_MORE_START"><path d="M0,18 Q 18,0 36,18 Q 18,36 0,18 M42,9 L42,27" fill="none" stroke="gray"/></marker></defs><defs><marker orient="auto" markerHeight="36" markerWidth="45" refY="18" refX="27" id="ONE_OR_MORE_END"><path d="M3,9 L3,27 M9,18 Q27,0 45,18 Q27,36 9,18" fill="none" stroke="gray"/></marker></defs><defs><marker orient="auto" markerHeight="36" markerWidth="57" refY="18" refX="18" id="ZERO_OR_MORE_START"><circle r="6" cy="18" cx="48" fill="white" stroke="gray"/><path d="M0,18 Q18,0 36,18 Q18,36 0,18" fill="none" stroke="gray"/></marker></defs><defs><marker orient="auto" markerHeight="36" markerWidth="57" refY="18" refX="39" id="ZERO_OR_MORE_END"><circle r="6" cy="18" cx="9" fill="white" stroke="gray"/><path d="M21,18 Q39,0 57,18 Q39,36 21,18" fill="none" stroke="gray"/></marker></defs><path style="stroke: gray; fill: none;" marker-start="url(#ONLY_ONE_START)" marker-end="url(#ONLY_ONE_END)" d="M570,95L570,103.33333333333333C570,111.66666666666667,570,128.33333333333334,570,145C570,161.66666666666666,570,178.33333333333334,570,186.66666666666666L570,195" class="er relationshipLine"/><path style="stroke: gray; fill: none;" marker-start="url(#ONLY_ONE_START)" marker-end="url(#ONLY_ONE_END)" d="M527.1428571428571,270L517.6190476190476,278.3333333333333C508.0952380952381,286.6666666666667,489.04761904761904,303.3333333333333,479.52380952380946,320C470,336.6666666666667,470,353.3333333333333,470,361.6666666666667L470,370" class="er relationshipLine"/><path style="stroke: gray; fill: none;" marker-start="url(#ONLY_ONE_START)" marker-end="url(#ONLY_ONE_END)" d="M612.8571428571429,270L622.3809523809524,278.3333333333333C631.9047619047619,286.6666666666667,650.952380952381,303.3333333333333,660.4761904761905,320C670,336.6666666666667,670,353.3333333333333,670,361.6666666666667L670,370" class="er relationshipLine"/><path style="stroke: gray; fill: none;" marker-start="url(#ONLY_ONE_START)" marker-end="url(#ONLY_ONE_END)" d="M470,445L470,453.3333333333333C470,461.6666666666667,470,478.3333333333333,470,495C470,511.6666666666667,470,528.3333333333334,470,536.6666666666666L470,545" class="er relationshipLine"/><path style="stroke: gray; fill: none;" marker-start="url(#ONLY_ONE_START)" marker-end="url(#ONLY_ONE_END)" d="M670,445L670,453.3333333333333C670,461.6666666666667,670,478.3333333333333,670,495C670,511.6666666666667,670,528.3333333333334,670,536.6666666666666L670,545" class="er relationshipLine"/><path style="stroke: gray; fill: none;" marker-start="url(#ONLY_ONE_START)" marker-end="url(#ZERO_OR_MORE_END)" d="M620,604.375L595,615.3125C570,626.25,520,648.125,495,673.6458333333334C470,699.1666666666666,470,728.3333333333334,470,757.5C470,786.6666666666666,470,815.8333333333334,470,845C470,874.1666666666666,470,903.3333333333334,470,932.5C470,961.6666666666666,470,990.8333333333334,470,1020C470,1049.1666666666667,470,1078.3333333333333,470,1107.5C470,1136.6666666666667,470,1165.8333333333333,470,1195C470,1224.1666666666667,470,1253.3333333333333,470,1282.5C470,1311.6666666666667,470,1340.8333333333333,470,1370C470,1399.1666666666667,470,1428.3333333333333,470,1457.5C470,1486.6666666666667,470,1515.8333333333333,495,1541.3541666666667C520,1566.875,570,1588.75,595,1599.6875L620,1610.625" class="er relationshipLine"/><path style="stroke: gray; fill: none;" marker-start="url(#ONLY_ONE_START)" marker-end="url(#ZERO_OR_MORE_END)" d="M702.1428571428571,620L709.2857142857142,628.3333333333334C716.4285714285714,636.6666666666666,730.7142857142857,653.3333333333334,737.8571428571428,670C745,686.6666666666666,745,703.3333333333334,745,711.6666666666666L745,720" class="er relationshipLine"/><path style="stroke: gray; fill: none;" marker-start="url(#ONLY_ONE_START)" marker-end="url(#ZERO_OR_MORE_END)" d="M695,792.5L682.5,801.25C670,810,645,827.5,632.5,850.8333333333334C620,874.1666666666666,620,903.3333333333334,620,932.5C620,961.6666666666666,620,990.8333333333334,620,1020C620,1049.1666666666667,620,1078.3333333333333,620,1107.5C620,1136.6666666666667,620,1165.8333333333333,620,1195C620,1224.1666666666667,620,1253.3333333333333,620,1282.5C620,1311.6666666666667,620,1340.8333333333333,620,1370C620,1399.1666666666667,620,1428.3333333333333,620,1457.5C620,1486.6666666666667,620,1515.8333333333333,624.7619047619047,1538.75C629.5238095238095,1561.6666666666667,639.047619047619,1578.3333333333333,643.8095238095237,1586.6666666666667L648.5714285714286,1595" class="er relationshipLine"/><path style="stroke: gray; fill: none;" marker-start="url(#ONLY_ONE_START)" marker-end="url(#ZERO_OR_MORE_END)" d="M777.1428571428571,795L784.2857142857142,803.3333333333334C791.4285714285714,811.6666666666666,805.7142857142857,828.3333333333334,812.8571428571428,845C820,861.6666666666666,820,878.3333333333334,820,886.6666666666666L820,895" class="er relationshipLine"/><path style="stroke: gray; fill: none;" marker-start="url(#ONLY_ONE_START)" marker-end="url(#ZERO_OR_MORE_END)" d="M787.8571428571429,970L780.7142857142858,978.3333333333334C773.5714285714286,986.6666666666666,759.2857142857143,1003.3333333333334,752.1428571428572,1026.25C745,1049.1666666666667,745,1078.3333333333333,745,1107.5C745,1136.6666666666667,745,1165.8333333333333,745,1195C745,1224.1666666666667,745,1253.3333333333333,745,1282.5C745,1311.6666666666667,745,1340.8333333333333,745,1370C745,1399.1666666666667,745,1428.3333333333333,745,1457.5C745,1486.6666666666667,745,1515.8333333333333,737.8571428571428,1538.75C730.7142857142857,1561.6666666666667,716.4285714285714,1578.3333333333333,709.2857142857142,1586.6666666666667L702.1428571428571,1595" class="er relationshipLine"/><path style="stroke: gray; fill: none;" marker-start="url(#ONLY_ONE_START)" marker-end="url(#ZERO_OR_MORE_END)" d="M862.8571428571429,970L872.3809523809524,978.3333333333334C881.9047619047619,986.6666666666666,900.9523809523811,1003.3333333333334,910.4761904761905,1020C920,1036.6666666666667,920,1053.3333333333333,920,1061.6666666666667L920,1070" class="er relationshipLine"/><path style="stroke: gray; fill: none;" marker-start="url(#ONLY_ONE_START)" marker-end="url(#ZERO_OR_MORE_END)" d="M898.5714285714286,1145L893.8095238095239,1153.3333333333333C889.0476190476189,1161.6666666666667,879.5238095238095,1178.3333333333333,874.7619047619047,1201.25C870,1224.1666666666667,870,1253.3333333333333,870,1282.5C870,1311.6666666666667,870,1340.8333333333333,870,1370C870,1399.1666666666667,870,1428.3333333333333,870,1457.5C870,1486.6666666666667,870,1515.8333333333333,845,1541.3541666666667C820,1566.875,770,1588.75,745,1599.6875L720,1610.625" class="er relationshipLine"/><path style="stroke: gray; fill: none;" marker-start="url(#ONLY_ONE_START)" marker-end="url(#ZERO_OR_MORE_END)" d="M970,1136.6666666666667L986.6666666666666,1146.388888888889C1003.3333333333334,1156.111111111111,1036.6666666666667,1175.5555555555557,1053.3333333333333,1193.611111111111C1070,1211.6666666666667,1070,1228.3333333333333,1070,1236.6666666666667L1070,1245" class="er relationshipLine"/><path style="stroke: gray; fill: none;" marker-start="url(#ONLY_ONE_START)" marker-end="url(#ZERO_OR_MORE_END)" d="M1037.857142857143,1320L1030.7142857142858,1328.3333333333333C1023.5714285714286,1336.6666666666667,1009.2857142857143,1353.3333333333333,1002.1428571428572,1376.25C995,1399.1666666666667,995,1428.3333333333333,995,1457.5C995,1486.6666666666667,995,1515.8333333333333,949.1666666666666,1542.7564102564102C903.3333333333334,1569.679487179487,811.6666666666666,1594.3589743589744,765.8333333333334,1606.6987179487178L720,1619.0384615384614" class="er relationshipLine"/><path style="stroke: gray; fill: none;" marker-start="url(#ONLY_ONE_START)" marker-end="url(#ZERO_OR_MORE_END)" d="M1102.142857142857,1320L1109.2857142857142,1328.3333333333333C1116.4285714285713,1336.6666666666667,1130.7142857142856,1353.3333333333333,1137.857142857143,1370C1145,1386.6666666666667,1145,1403.3333333333333,1145,1411.6666666666667L1145,1420" class="er relationshipLine"/><path style="stroke: gray; fill: none;" marker-start="url(#ONLY_ONE_START)" marker-end="url(#ZERO_OR_MORE_END)" d="M1145,1495L1145,1503.3333333333333C1145,1511.6666666666667,1145,1528.3333333333333,1074.1666666666667,1549.7149122807016C1003.3333333333334,1571.0964912280704,861.6666666666666,1597.1929824561405,790.8333333333334,1610.2412280701756L720,1623.2894736842106" class="er relationshipLine"/><path style="stroke: gray; fill: none;" marker-start="url(#ONLY_ONE_START)" marker-end="url(#ZERO_OR_MORE_END)" d="M620,1639.7916666666667L528.3333333333334,1653.1597222222224C436.6666666666667,1666.527777777778,253.33333333333334,1693.263888888889,161.66666666666666,1714.9652777777776C70,1736.6666666666667,70,1753.3333333333333,70,1761.6666666666667L70,1770" class="er relationshipLine"/><path style="stroke: gray; fill: none;" marker-start="url(#ONLY_ONE_START)" marker-end="url(#ZERO_OR_MORE_END)" d="M620,1643.4375L561.6666666666666,1656.1979166666667C503.3333333333333,1668.9583333333333,386.6666666666667,1694.4791666666667,328.3333333333333,1715.5729166666667C270,1736.6666666666667,270,1753.3333333333333,270,1761.6666666666667L270,1770" class="er relationshipLine"/><path style="stroke: gray; fill: none;" marker-start="url(#ONLY_ONE_START)" marker-end="url(#ZERO_OR_MORE_END)" d="M620,1654.375L595,1665.3125C570,1676.25,520,1698.125,495,1717.3958333333333C470,1736.6666666666667,470,1753.3333333333333,470,1761.6666666666667L470,1770" class="er relationshipLine"/><path style="stroke: gray; fill: none;" marker-start="url(#ONLY_ONE_START)" marker-end="url(#ZERO_OR_MORE_END)" d="M620,1654.375L595,1665.3125C570,1676.25,520,1698.125,495,1717.3958333333333C470,1736.6666666666667,470,1753.3333333333333,470,1761.6666666666667L470,1770" class="er relationshipLine"/><path style="stroke: gray; fill: none;" marker-start="url(#ONLY_ONE_START)" marker-end="url(#ZERO_OR_MORE_END)" d="M670,1670L670,1678.3333333333333C670,1686.6666666666667,670,1703.3333333333333,670,1720C670,1736.6666666666667,670,1753.3333333333333,670,1761.6666666666667L670,1770" class="er relationshipLine"/><path style="stroke: gray; fill: none;" marker-start="url(#ONLY_ONE_START)" marker-end="url(#ZERO_OR_MORE_END)" d="M720,1654.375L745,1665.3125C770,1676.25,820,1698.125,845,1717.3958333333333C870,1736.6666666666667,870,1753.3333333333333,870,1761.6666666666667L870,1770" class="er relationshipLine"/><path style="stroke: gray; fill: none;" marker-start="url(#ONLY_ONE_START)" marker-end="url(#ZERO_OR_MORE_END)" d="M720,1643.4375L778.3333333333334,1656.1979166666667C836.6666666666666,1668.9583333333333,953.3333333333334,1694.4791666666667,1011.6666666666666,1715.5729166666667C1070,1736.6666666666667,1070,1753.3333333333333,1070,1761.6666666666667L1070,1770" class="er relationshipLine"/><path style="stroke: gray; fill: none;" marker-start="url(#ONLY_ONE_START)" marker-end="url(#ZERO_OR_MORE_END)" d="M720,1639.7916666666667L811.6666666666666,1653.1597222222224C903.3333333333334,1666.527777777778,1086.6666666666667,1693.263888888889,1178.3333333333333,1714.9652777777776C1270,1736.6666666666667,1270,1753.3333333333333,1270,1761.6666666666667L1270,1770" class="er relationshipLine"/><path style="stroke: gray; fill: none;" marker-start="url(#ONLY_ONE_START)" marker-end="url(#ZERO_OR_MORE_END)" d="M70,1845L70,1853.3333333333333C70,1861.6666666666667,70,1878.3333333333333,70,1895C70,1911.6666666666667,70,1928.3333333333333,70,1936.6666666666667L70,1945" class="er relationshipLine"/><path style="stroke: gray; fill: none;" marker-start="url(#ONLY_ONE_START)" marker-end="url(#ZERO_OR_MORE_END)" d="M270,1845L270,1853.3333333333333C270,1861.6666666666667,270,1878.3333333333333,279.5238095238095,1895C289.04761904761904,1911.6666666666667,308.09523809523813,1928.3333333333333,317.61904761904765,1936.6666666666667L327.14285714285717,1945" class="er relationshipLine"/><path style="stroke: gray; fill: none;" marker-start="url(#ONLY_ONE_START)" marker-end="url(#ZERO_OR_MORE_END)" d="M470,1845L470,1853.3333333333333C470,1861.6666666666667,470,1878.3333333333333,460.4761904761904,1895C450.95238095238096,1911.6666666666667,431.9047619047619,1928.3333333333333,422.38095238095235,1936.6666666666667L412.85714285714283,1945" class="er relationshipLine"/><path style="stroke: gray; fill: none;" marker-start="url(#ONLY_ONE_START)" marker-end="url(#ZERO_OR_MORE_END)" d="M670,1845L670,1853.3333333333333C670,1861.6666666666667,670,1878.3333333333333,670,1895C670,1911.6666666666667,670,1928.3333333333333,670,1936.6666666666667L670,1945" class="er relationshipLine"/><path style="stroke: gray; fill: none;" marker-start="url(#ONLY_ONE_START)" marker-end="url(#ZERO_OR_MORE_END)" d="M670,2020L670,2028.3333333333333C670,2036.6666666666667,670,2053.3333333333335,670,2070C670,2086.6666666666665,670,2103.3333333333335,670,2111.6666666666665L670,2120" class="er relationshipLine"/><g transform="translate(520,20 )" id="entity-DOCUMENT-930a1042-f082-53f3-9c67-66f432d02c38"><rect height="75" width="100" y="0" x="0" class="er entityBox"/><text style="dominant-baseline: middle; text-anchor: middle; font-size: 12px;" transform="translate(50,37.5)" y="0" x="0" id="text-entity-DOCUMENT-930a1042-f082-53f3-9c67-66f432d02c38" class="er entityLabel">DOCUMENT</text></g><g transform="translate(520,195 )" id="entity-HTML-cf2de8a2-d5d2-52ee-8b46-354762b09b6f"><rect height="75" width="100" y="0" x="0" class="er entityBox"/><text style="dominant-baseline: middle; text-anchor: middle; font-size: 12px;" transform="translate(50,37.5)" y="0" x="0" id="text-entity-HTML-cf2de8a2-d5d2-52ee-8b46-354762b09b6f" class="er entityLabel">HTML</text></g><g transform="translate(420,370 )" id="entity-HEAD-9b0efcc5-3104-52fa-a585-7c731a593bfb"><rect height="75" width="100" y="0" x="0" class="er entityBox"/><text style="dominant-baseline: middle; text-anchor: middle; font-size: 12px;" transform="translate(50,37.5)" y="0" x="0" id="text-entity-HEAD-9b0efcc5-3104-52fa-a585-7c731a593bfb" class="er entityLabel">HEAD</text></g><g transform="translate(620,370 )" id="entity-BODY-bde634e1-2d4a-5104-8ba4-f5431ed4e1cf"><rect height="75" width="100" y="0" x="0" class="er entityBox"/><text style="dominant-baseline: middle; text-anchor: middle; font-size: 12px;" transform="translate(50,37.5)" y="0" x="0" id="text-entity-BODY-bde634e1-2d4a-5104-8ba4-f5431ed4e1cf" class="er entityLabel">BODY</text></g><g transform="translate(420,545 )" id="entity-METADATA-a1453df0-012f-57e8-8913-2cd6dbb27e66"><rect height="75" width="100" y="0" x="0" class="er entityBox"/><text style="dominant-baseline: middle; text-anchor: middle; font-size: 12px;" transform="translate(50,37.5)" y="0" x="0" id="text-entity-METADATA-a1453df0-012f-57e8-8913-2cd6dbb27e66" class="er entityLabel">METADATA</text></g><g transform="translate(620,545 )" id="entity-H1-9331f23f-dac2-55c2-94ee-5ac19bb2a061"><rect height="75" width="100" y="0" x="0" class="er entityBox"/><text style="dominant-baseline: middle; text-anchor: middle; font-size: 12px;" transform="translate(50,37.5)" y="0" x="0" id="text-entity-H1-9331f23f-dac2-55c2-94ee-5ac19bb2a061" class="er entityLabel">H1</text></g><g transform="translate(620,1595 )" id="entity-MDOBJECT-c54ea4f3-6606-55d6-90ea-83447d96d98d"><rect height="75" width="100" y="0" x="0" class="er entityBox"/><text style="dominant-baseline: middle; text-anchor: middle; font-size: 12px;" transform="translate(50,37.5)" y="0" x="0" id="text-entity-MDOBJECT-c54ea4f3-6606-55d6-90ea-83447d96d98d" class="er entityLabel">MD-OBJECT</text></g><g transform="translate(695,720 )" id="entity-H2-f87210bb-2a1b-543a-9ddb-733b6794abb3"><rect height="75" width="100" y="0" x="0" class="er entityBox"/><text style="dominant-baseline: middle; text-anchor: middle; font-size: 12px;" transform="translate(50,37.5)" y="0" x="0" id="text-entity-H2-f87210bb-2a1b-543a-9ddb-733b6794abb3" class="er entityLabel">H2</text></g><g transform="translate(770,895 )" id="entity-H3-a39c309d-5f0b-5de7-8eb6-66ca10ac2027"><rect height="75" width="100" y="0" x="0" class="er entityBox"/><text style="dominant-baseline: middle; text-anchor: middle; font-size: 12px;" transform="translate(50,37.5)" y="0" x="0" id="text-entity-H3-a39c309d-5f0b-5de7-8eb6-66ca10ac2027" class="er entityLabel">H3</text></g><g transform="translate(870,1070 )" id="entity-H4-16104ce4-cbde-55b0-918c-6a05f18ee817"><rect height="75" width="100" y="0" x="0" class="er entityBox"/><text style="dominant-baseline: middle; text-anchor: middle; font-size: 12px;" transform="translate(50,37.5)" y="0" x="0" id="text-entity-H4-16104ce4-cbde-55b0-918c-6a05f18ee817" class="er entityLabel">H4</text></g><g transform="translate(1020,1245 )" id="entity-H5-793d8260-7393-581f-a9e5-9576ddfa146d"><rect height="75" width="100" y="0" x="0" class="er entityBox"/><text style="dominant-baseline: middle; text-anchor: middle; font-size: 12px;" transform="translate(50,37.5)" y="0" x="0" id="text-entity-H5-793d8260-7393-581f-a9e5-9576ddfa146d" class="er entityLabel">H5</text></g><g transform="translate(1095,1420 )" id="entity-H6-ed980d90-39ac-57e2-9900-4a1a90238b7b"><rect height="75" width="100" y="0" x="0" class="er entityBox"/><text style="dominant-baseline: middle; text-anchor: middle; font-size: 12px;" transform="translate(50,37.5)" y="0" x="0" id="text-entity-H6-ed980d90-39ac-57e2-9900-4a1a90238b7b" class="er entityLabel">H6</text></g><g transform="translate(20,1770 )" id="entity-P-4e5a9182-8659-58bc-9e87-d72fdca7c32b"><rect height="75" width="100" y="0" x="0" class="er entityBox"/><text style="dominant-baseline: middle; text-anchor: middle; font-size: 12px;" transform="translate(50,37.5)" y="0" x="0" id="text-entity-P-4e5a9182-8659-58bc-9e87-d72fdca7c32b" class="er entityLabel">P</text></g><g transform="translate(220,1770 )" id="entity-OL-825ae48e-633f-5c94-be82-fca3c66a53f2"><rect height="75" width="100" y="0" x="0" class="er entityBox"/><text style="dominant-baseline: middle; text-anchor: middle; font-size: 12px;" transform="translate(50,37.5)" y="0" x="0" id="text-entity-OL-825ae48e-633f-5c94-be82-fca3c66a53f2" class="er entityLabel">OL</text></g><g transform="translate(420,1770 )" id="entity-UL-b1519cf7-2f52-53d2-b392-6a1cffc4ef0b"><rect height="75" width="100" y="0" x="0" class="er entityBox"/><text style="dominant-baseline: middle; text-anchor: middle; font-size: 12px;" transform="translate(50,37.5)" y="0" x="0" id="text-entity-UL-b1519cf7-2f52-53d2-b392-6a1cffc4ef0b" class="er entityLabel">UL</text></g><g transform="translate(620,1770 )" id="entity-TABLE-a27f74dd-5df1-5a8e-aca8-fa10be37f872"><rect height="75" width="100" y="0" x="0" class="er entityBox"/><text style="dominant-baseline: middle; text-anchor: middle; font-size: 12px;" transform="translate(50,37.5)" y="0" x="0" id="text-entity-TABLE-a27f74dd-5df1-5a8e-aca8-fa10be37f872" class="er entityLabel">TABLE</text></g><g transform="translate(820,1770 )" id="entity-CODE-974822f3-13ca-5fd5-a8f0-59c4b8f61f97"><rect height="75" width="100" y="0" x="0" class="er entityBox"/><text style="dominant-baseline: middle; text-anchor: middle; font-size: 12px;" transform="translate(50,37.5)" y="0" x="0" id="text-entity-CODE-974822f3-13ca-5fd5-a8f0-59c4b8f61f97" class="er entityLabel">CODE</text></g><g transform="translate(1020,1770 )" id="entity-ALERT-2749889f-e9d1-5df4-b3d9-85dfbb849560"><rect height="75" width="100" y="0" x="0" class="er entityBox"/><text style="dominant-baseline: middle; text-anchor: middle; font-size: 12px;" transform="translate(50,37.5)" y="0" x="0" id="text-entity-ALERT-2749889f-e9d1-5df4-b3d9-85dfbb849560" class="er entityLabel">ALERT</text></g><g transform="translate(1220,1770 )" id="entity-FIGURE-aaac79a6-8fbd-5f2c-ad64-92a336078c51"><rect height="75" width="100" y="0" x="0" class="er entityBox"/><text style="dominant-baseline: middle; text-anchor: middle; font-size: 12px;" transform="translate(50,37.5)" y="0" x="0" id="text-entity-FIGURE-aaac79a6-8fbd-5f2c-ad64-92a336078c51" class="er entityLabel">FIGURE</text></g><g transform="translate(20,1945 )" id="entity-LINK-0f465eb1-1d37-537d-829e-8b3f7c132a9a"><rect height="75" width="100" y="0" x="0" class="er entityBox"/><text style="dominant-baseline: middle; text-anchor: middle; font-size: 12px;" transform="translate(50,37.5)" y="0" x="0" id="text-entity-LINK-0f465eb1-1d37-537d-829e-8b3f7c132a9a" class="er entityLabel">LINK</text></g><g transform="translate(320,1945 )" id="entity-LI-d326d719-297e-5ef0-ade4-b06b4f985159"><rect height="75" width="100" y="0" x="0" class="er entityBox"/><text style="dominant-baseline: middle; text-anchor: middle; font-size: 12px;" transform="translate(50,37.5)" y="0" x="0" id="text-entity-LI-d326d719-297e-5ef0-ade4-b06b4f985159" class="er entityLabel">LI</text></g><g transform="translate(620,1945 )" id="entity-ROW-62add83a-b713-54a5-9a67-d27e24870b63"><rect height="75" width="100" y="0" x="0" class="er entityBox"/><text style="dominant-baseline: middle; text-anchor: middle; font-size: 12px;" transform="translate(50,37.5)" y="0" x="0" id="text-entity-ROW-62add83a-b713-54a5-9a67-d27e24870b63" class="er entityLabel">ROW</text></g><g transform="translate(620,2120 )" id="entity-COLUMN-7f883bc8-a7c5-556e-aa76-b26629a09ce0"><rect height="75" width="100" y="0" x="0" class="er entityBox"/><text style="dominant-baseline: middle; text-anchor: middle; font-size: 12px;" transform="translate(50,37.5)" y="0" x="0" id="text-entity-COLUMN-7f883bc8-a7c5-556e-aa76-b26629a09ce0" class="er entityLabel">COLUMN</text></g><rect height="14" width="26.14583396911621" y="138" x="556.9270830154419" class="er relationshipLabelBox"/><text style="text-anchor: middle; dominant-baseline: middle; font-size: 12px;" y="145" x="570" id="rel2363" class="er relationshipLabel">child</text><rect height="14" width="26.14583396911621" y="305.5645446777344" x="471.28886890411377" class="er relationshipLabelBox"/><text style="text-anchor: middle; dominant-baseline: middle; font-size: 12px;" y="312.5645446777344" x="484.3617858886719" id="rel2364" class="er relationshipLabel">child</text><rect height="14" width="26.14583396911621" y="305.5645751953125" x="642.5652666091919" class="er relationshipLabelBox"/><text style="text-anchor: middle; dominant-baseline: middle; font-size: 12px;" y="312.5645751953125" x="655.63818359375" id="rel2365" class="er relationshipLabel">child</text><rect height="14" width="26.14583396911621" y="488" x="456.9270830154419" class="er relationshipLabelBox"/><text style="text-anchor: middle; dominant-baseline: middle; font-size: 12px;" y="495" x="470" id="rel2366" class="er relationshipLabel">child</text><rect height="14" width="26.14583396911621" y="488" x="656.9270830154419" class="er relationshipLabelBox"/><text style="text-anchor: middle; dominant-baseline: middle; font-size: 12px;" y="495" x="670" id="rel2367" class="er relationshipLabel">child</text><rect height="14" width="26.14583396911621" y="1100.5" x="456.9270830154419" class="er relationshipLabelBox"/><text style="text-anchor: middle; dominant-baseline: middle; font-size: 12px;" y="1107.5" x="470" id="rel2368" class="er relationshipLabel">child</text><rect height="14" width="26.14583396911621" y="658.125732421875" x="722.5005693435669" class="er relationshipLabelBox"/><text style="text-anchor: middle; dominant-baseline: middle; font-size: 12px;" y="665.125732421875" x="735.573486328125" id="rel2369" class="er relationshipLabel">child</text><rect height="14" width="26.14583396911621" y="1174.556396484375" x="606.9270830154419" class="er relationshipLabelBox"/><text style="text-anchor: middle; dominant-baseline: middle; font-size: 12px;" y="1181.556396484375" x="620" id="rel2370" class="er relationshipLabel">child</text><rect height="14" width="26.14583396911621" y="833.125732421875" x="797.5005693435669" class="er relationshipLabelBox"/><text style="text-anchor: middle; dominant-baseline: middle; font-size: 12px;" y="840.125732421875" x="810.573486328125" id="rel2371" class="er relationshipLabel">child</text><rect height="14" width="26.14583396911621" y="1275.5" x="731.9270830154419" class="er relationshipLabelBox"/><text style="text-anchor: middle; dominant-baseline: middle; font-size: 12px;" y="1282.5" x="745" id="rel2372" class="er relationshipLabel">child</text><rect height="14" width="26.14583396911621" y="1005.5645751953125" x="892.5652055740356" class="er relationshipLabelBox"/><text style="text-anchor: middle; dominant-baseline: middle; font-size: 12px;" y="1012.5645751953125" x="905.6381225585938" id="rel2373" class="er relationshipLabel">child</text><rect height="14" width="26.14583396911621" y="1408.48828125" x="856.9270830154419" class="er relationshipLabelBox"/><text style="text-anchor: middle; dominant-baseline: middle; font-size: 12px;" y="1415.48828125" x="870" id="rel2374" class="er relationshipLabel">child</text><rect height="14" width="26.14583396911621" y="1171.52392578125" x="1023.2815752029419" class="er relationshipLabelBox"/><text style="text-anchor: middle; dominant-baseline: middle; font-size: 12px;" y="1178.52392578125" x="1036.3544921875" id="rel2375" class="er relationshipLabel">child</text><rect height="14" width="26.14583396911621" y="1533.129150390625" x="940.4100542068481" class="er relationshipLabelBox"/><text style="text-anchor: middle; dominant-baseline: middle; font-size: 12px;" y="1540.129150390625" x="953.4829711914062" id="rel2376" class="er relationshipLabel">child</text><rect height="14" width="26.14583396911621" y="1358.1259765625" x="1122.5002031326294" class="er relationshipLabelBox"/><text style="text-anchor: middle; dominant-baseline: middle; font-size: 12px;" y="1365.1259765625" x="1135.5731201171875" id="rel2377" class="er relationshipLabel">child</text><rect height="14" width="26.14583396911621" y="1573.3590087890625" x="932.7635087966919" class="er relationshipLabelBox"/><text style="text-anchor: middle; dominant-baseline: middle; font-size: 12px;" y="1580.3590087890625" x="945.83642578125" id="rel2378" class="er relationshipLabel">child</text><rect height="14" width="26.14583396911621" y="1675.930419921875" x="319.6225481033325" class="er relationshipLabelBox"/><text style="text-anchor: middle; dominant-baseline: middle; font-size: 12px;" y="1682.930419921875" x="332.6954650878906" id="rel2379" class="er relationshipLabel">child</text><rect height="14" width="26.14583396911621" y="1679.222900390625" x="417.82011890411377" class="er relationshipLabelBox"/><text style="text-anchor: middle; dominant-baseline: middle; font-size: 12px;" y="1686.222900390625" x="430.8930358886719" id="rel2380" class="er relationshipLabel">child</text><rect height="14" width="26.14583396911621" y="1689.657470703125" x="515.4617509841919" class="er relationshipLabelBox"/><text style="text-anchor: middle; dominant-baseline: middle; font-size: 12px;" y="1696.657470703125" x="528.53466796875" id="rel2381" class="er relationshipLabel">child</text><rect height="14" width="26.14583396911621" y="1689.657470703125" x="515.4617509841919" class="er relationshipLabelBox"/><text style="text-anchor: middle; dominant-baseline: middle; font-size: 12px;" y="1696.657470703125" x="528.53466796875" id="rel2382" class="er relationshipLabel">child</text><rect height="14" width="26.14583396911621" y="1713" x="656.9270830154419" class="er relationshipLabelBox"/><text style="text-anchor: middle; dominant-baseline: middle; font-size: 12px;" y="1720" x="670" id="rel2383" class="er relationshipLabel">child</text><rect height="14" width="26.14583396911621" y="1689.657470703125" x="798.3924760818481" class="er relationshipLabelBox"/><text style="text-anchor: middle; dominant-baseline: middle; font-size: 12px;" y="1696.657470703125" x="811.4653930664062" id="rel2384" class="er relationshipLabel">child</text><rect height="14" width="26.14583396911621" y="1679.222900390625" x="896.0340166091919" class="er relationshipLabelBox"/><text style="text-anchor: middle; dominant-baseline: middle; font-size: 12px;" y="1686.222900390625" x="909.10693359375" id="rel2385" class="er relationshipLabel">child</text><rect height="14" width="26.14583396911621" y="1675.930419921875" x="994.2316484451294" class="er relationshipLabelBox"/><text style="text-anchor: middle; dominant-baseline: middle; font-size: 12px;" y="1682.930419921875" x="1007.3045654296875" id="rel2386" class="er relationshipLabel">child</text><rect height="14" width="26.14583396911621" y="1888" x="56.927083015441895" class="er relationshipLabelBox"/><text style="text-anchor: middle; dominant-baseline: middle; font-size: 12px;" y="1895" x="70" id="rel2387" class="er relationshipLabel">child</text><rect height="14" width="26.14583396911621" y="1895.434814453125" x="271.28969287872314" class="er relationshipLabelBox"/><text style="text-anchor: middle; dominant-baseline: middle; font-size: 12px;" y="1902.434814453125" x="284.36260986328125" id="rel2388" class="er relationshipLabel">child</text><rect height="14" width="26.14583396911621" y="1895.434814453125" x="442.56447315216064" class="er relationshipLabelBox"/><text style="text-anchor: middle; dominant-baseline: middle; font-size: 12px;" y="1902.434814453125" x="455.63739013671875" id="rel2389" class="er relationshipLabel">child</text><rect height="14" width="26.14583396911621" y="1888" x="656.9270830154419" class="er relationshipLabelBox"/><text style="text-anchor: middle; dominant-baseline: middle; font-size: 12px;" y="1895" x="670" id="rel2390" class="er relationshipLabel">child</text><rect height="14" width="26.14583396911621" y="2063" x="656.9270830154419" class="er relationshipLabelBox"/><text style="text-anchor: middle; dominant-baseline: middle; font-size: 12px;" y="2070" x="670" id="rel2391" class="er relationshipLabel">child</text><text class="entityTitleText" y="-25" x="670">Article (Doc) and Learn (Unit) Model [2.26.23]</text></svg>