<svg aria-labelledby="chart-title-mermaid-1677439833496" aria-roledescription="er" role="graphics-document document" viewBox="0 -61.66666793823242 985.5960693359375 701.6666870117188" style="max-width: 985.596px; background-color: rgb(255, 255, 255);" xmlns:xlink="http://www.w3.org/1999/xlink" xmlns="http://www.w3.org/2000/svg" width="100%" id="mermaid-1677439833496"><title id="chart-title-mermaid-1677439833496">Parse modules [2.26.23]</title><style>#mermaid-1677439833496{font-family:"trebuchet ms",verdana,arial,sans-serif;font-size:16px;fill:#333;}#mermaid-1677439833496 .error-icon{fill:#552222;}#mermaid-1677439833496 .error-text{fill:#552222;stroke:#552222;}#mermaid-1677439833496 .edge-thickness-normal{stroke-width:2px;}#mermaid-1677439833496 .edge-thickness-thick{stroke-width:3.5px;}#mermaid-1677439833496 .edge-pattern-solid{stroke-dasharray:0;}#mermaid-1677439833496 .edge-pattern-dashed{stroke-dasharray:3;}#mermaid-1677439833496 .edge-pattern-dotted{stroke-dasharray:2;}#mermaid-1677439833496 .marker{fill:#333333;stroke:#333333;}#mermaid-1677439833496 .marker.cross{stroke:#333333;}#mermaid-1677439833496 svg{font-family:"trebuchet ms",verdana,arial,sans-serif;font-size:16px;}#mermaid-1677439833496 .entityBox{fill:#ECECFF;stroke:#9370DB;}#mermaid-1677439833496 .attributeBoxOdd{fill:#ffffff;stroke:#9370DB;}#mermaid-1677439833496 .attributeBoxEven{fill:#f2f2f2;stroke:#9370DB;}#mermaid-1677439833496 .relationshipLabelBox{fill:hsl(80, 100%, 96.2745098039%);opacity:0.7;background-color:hsl(80, 100%, 96.2745098039%);}#mermaid-1677439833496 .relationshipLabelBox rect{opacity:0.5;}#mermaid-1677439833496 .relationshipLine{stroke:#333333;}#mermaid-1677439833496 .entityTitleText{text-anchor:middle;font-size:18px;fill:#333;}#mermaid-1677439833496 :root{--mermaid-font-family:"trebuchet ms",verdana,arial,sans-serif;}</style><g/><defs><marker orient="auto" markerHeight="18" markerWidth="18" refY="9" refX="0" id="ONLY_ONE_START"><path d="M9,0 L9,18 M15,0 L15,18" fill="none" stroke="gray"/></marker></defs><defs><marker orient="auto" markerHeight="18" markerWidth="18" refY="9" refX="18" id="ONLY_ONE_END"><path d="M3,0 L3,18 M9,0 L9,18" fill="none" stroke="gray"/></marker></defs><defs><marker orient="auto" markerHeight="18" markerWidth="30" refY="9" refX="0" id="ZERO_OR_ONE_START"><circle r="6" cy="9" cx="21" fill="white" stroke="gray"/><path d="M9,0 L9,18" fill="none" stroke="gray"/></marker></defs><defs><marker orient="auto" markerHeight="18" markerWidth="30" refY="9" refX="30" id="ZERO_OR_ONE_END"><circle r="6" cy="9" cx="9" fill="white" stroke="gray"/><path d="M21,0 L21,18" fill="none" stroke="gray"/></marker></defs><defs><marker orient="auto" markerHeight="36" markerWidth="45" refY="18" refX="18" id="ONE_OR_MORE_START"><path d="M0,18 Q 18,0 36,18 Q 18,36 0,18 M42,9 L42,27" fill="none" stroke="gray"/></marker></defs><defs><marker orient="auto" markerHeight="36" markerWidth="45" refY="18" refX="27" id="ONE_OR_MORE_END"><path d="M3,9 L3,27 M9,18 Q27,0 45,18 Q27,36 9,18" fill="none" stroke="gray"/></marker></defs><defs><marker orient="auto" markerHeight="36" markerWidth="57" refY="18" refX="18" id="ZERO_OR_MORE_START"><circle r="6" cy="18" cx="48" fill="white" stroke="gray"/><path d="M0,18 Q18,0 36,18 Q18,36 0,18" fill="none" stroke="gray"/></marker></defs><defs><marker orient="auto" markerHeight="36" markerWidth="57" refY="18" refX="39" id="ZERO_OR_MORE_END"><circle r="6" cy="18" cx="9" fill="white" stroke="gray"/><path d="M21,18 Q39,0 57,18 Q39,36 21,18" fill="none" stroke="gray"/></marker></defs><path style="stroke: gray; fill: none;" marker-start="url(#ONLY_ONE_START)" marker-end="url(#ONLY_ONE_END)" d="M420.1302089691162,70.36123547676527L361.78586228688556,82.80102956397106C303.44151560465497,95.24082365117685,186.7528222401937,120.12041182558842,128.40847555796304,140.89353924612755C70.06412887573242,161.66666666666666,70.06412887573242,178.33333333333334,70.06412887573242,186.66666666666666L70.06412887573242,195" class="er relationshipLine"/><path style="stroke: gray; fill: none;" marker-start="url(#ONLY_ONE_START)" marker-end="url(#ZERO_OR_MORE_END)" d="M70.06412887573242,270L70.06412887573242,278.3333333333333C70.06412887573242,286.6666666666667,70.06412887573242,303.3333333333333,70.06412887573242,320C70.06412887573242,336.6666666666667,70.06412887573242,353.3333333333333,70.06412887573242,361.6666666666667L70.06412887573242,370" class="er relationshipLine"/><path style="stroke: gray; fill: none;" marker-start="url(#ONLY_ONE_START)" marker-end="url(#ONLY_ONE_END)" d="M435.64160346984863,95L425.68392117818195,103.33333333333333C415.7262388865153,111.66666666666667,395.81087430318195,128.33333333333334,385.8531920115153,145C375.89550971984863,161.66666666666666,375.89550971984863,178.33333333333334,375.89550971984863,186.66666666666666L375.89550971984863,195" class="er relationshipLine"/><path style="stroke: gray; fill: none;" marker-start="url(#ONLY_ONE_START)" marker-end="url(#ZERO_OR_MORE_END)" d="M331.9322700500488,270L322.1626612345378,278.3333333333333C312.3930524190267,286.6666666666667,292.8538347880046,303.3333333333333,283.08422597249347,320C273.3146171569824,336.6666666666667,273.3146171569824,353.3333333333333,273.3146171569824,361.6666666666667L273.3146171569824,370" class="er relationshipLine"/><path style="stroke: gray; fill: none;" marker-start="url(#ONLY_ONE_START)" marker-end="url(#ONLY_ONE_END)" d="M419.85874938964844,270L429.6283582051595,278.3333333333333C439.3979670206706,286.6666666666667,458.9371846516927,303.3333333333333,468.7067934672038,320C478.47640228271484,336.6666666666667,478.47640228271484,353.3333333333333,478.47640228271484,361.6666666666667L478.47640228271484,370" class="er relationshipLine"/><path style="stroke: gray; fill: none;" marker-start="url(#ONLY_ONE_START)" marker-end="url(#ZERO_OR_MORE_END)" d="M478.47640228271484,445L478.47640228271484,453.3333333333333C478.47640228271484,461.6666666666667,478.47640228271484,478.3333333333333,478.47640228271484,495C478.47640228271484,511.6666666666667,478.47640228271484,528.3333333333334,478.47640228271484,536.6666666666666L478.47640228271484,545" class="er relationshipLine"/><path style="stroke: gray; fill: none;" marker-start="url(#ONLY_ONE_START)" marker-end="url(#ONLY_ONE_END)" d="M540.772138595581,83.22645006926211L564.912275314331,93.52204172438509C589.052412033081,103.81763337950808,637.332685470581,124.40881668975403,661.472822189331,143.03774167821035C685.612958908081,161.66666666666666,685.612958908081,178.33333333333334,685.612958908081,186.66666666666666L685.612958908081,195" class="er relationshipLine"/><path style="stroke: gray; fill: none;" marker-start="url(#ONLY_ONE_START)" marker-end="url(#ONLY_ONE_END)" d="M685.612958908081,270L685.612958908081,278.3333333333333C685.612958908081,286.6666666666667,685.612958908081,303.3333333333333,685.612958908081,320C685.612958908081,336.6666666666667,685.612958908081,353.3333333333333,685.612958908081,361.6666666666667L685.612958908081,370" class="er relationshipLine"/><path style="stroke: gray; fill: none;" marker-start="url(#ONLY_ONE_START)" marker-end="url(#ONLY_ONE_END)" d="M540.772138595581,70.0622817149483L600.7441984812418,82.55190142912359C660.7162583669027,95.04152114329888,780.6603781382242,120.02076057164943,840.6324380238851,140.84371361915805C900.6044979095459,161.66666666666666,900.6044979095459,178.33333333333334,900.6044979095459,186.66666666666666L900.6044979095459,195" class="er relationshipLine"/><path style="stroke: gray; fill: none;" marker-start="url(#ONLY_ONE_START)" marker-end="url(#ZERO_OR_MORE_END)" d="M900.6044979095459,270L900.6044979095459,278.3333333333333C900.6044979095459,286.6666666666667,900.6044979095459,303.3333333333333,900.6044979095459,320C900.6044979095459,336.6666666666667,900.6044979095459,353.3333333333333,900.6044979095459,361.6666666666667L900.6044979095459,370" class="er relationshipLine"/><g transform="translate(420.1302089691162,20 )" id="entity-SKILLINGPARSER-9c291534-e3bc-590f-8ea5-20a0ad38a799"><rect height="75" width="120.64192962646484" y="0" x="0" class="er entityBox"/><text style="dominant-baseline: middle; text-anchor: middle; font-size: 12px;" transform="translate(60.32096481323242,37.5)" y="0" x="0" id="text-entity-SKILLINGPARSER-9c291534-e3bc-590f-8ea5-20a0ad38a799" class="er entityLabel">SKILLING-PARSER</text></g><g transform="translate(20,195 )" id="entity-FILEROUTER-c16ed093-4cba-5218-b8d0-447bcd2d5438"><rect height="75" width="100.12825775146484" y="0" x="0" class="er entityBox"/><text style="dominant-baseline: middle; text-anchor: middle; font-size: 12px;" transform="translate(50.06412887573242,37.5)" y="0" x="0" id="text-entity-FILEROUTER-c16ed093-4cba-5218-b8d0-447bcd2d5438" class="er entityLabel">FILE-ROUTER</text></g><g transform="translate(20.064128875732422,370 )" id="entity-FILEREADER-f1371db2-1467-565a-9ef8-b9dbadf42ef5"><rect height="75" width="100" y="0" x="0" class="er entityBox"/><text style="dominant-baseline: middle; text-anchor: middle; font-size: 12px;" transform="translate(50,37.5)" y="0" x="0" id="text-entity-FILEREADER-f1371db2-1467-565a-9ef8-b9dbadf42ef5" class="er entityLabel">FILE-READER</text></g><g transform="translate(319.45866203308105,195 )" id="entity-PARSERENGINE-af0052f0-8618-53e1-8abd-22e12a025951"><rect height="75" width="112.87370300292969" y="0" x="0" class="er entityBox"/><text style="dominant-baseline: middle; text-anchor: middle; font-size: 12px;" transform="translate(56.436851501464844,37.5)" y="0" x="0" id="text-entity-PARSERENGINE-af0052f0-8618-53e1-8abd-22e12a025951" class="er entityLabel">PARSER-ENGINE</text></g><g transform="translate(223.31461715698242,370 )" id="entity-PARSER-577c733a-3416-525a-b939-5cd4702c09b6"><rect height="75" width="100" y="0" x="0" class="er entityBox"/><text style="dominant-baseline: middle; text-anchor: middle; font-size: 12px;" transform="translate(50,37.5)" y="0" x="0" id="text-entity-PARSER-577c733a-3416-525a-b939-5cd4702c09b6" class="er entityLabel">PARSER</text></g><g transform="translate(423.3146171569824,370 )" id="entity-TOKENENGINE-f325ce83-fb50-519b-84d4-632d8e89cdfe"><rect height="75" width="110.32357025146484" y="0" x="0" class="er entityBox"/><text style="dominant-baseline: middle; text-anchor: middle; font-size: 12px;" transform="translate(55.16178512573242,37.5)" y="0" x="0" id="text-entity-TOKENENGINE-f325ce83-fb50-519b-84d4-632d8e89cdfe" class="er entityLabel">TOKEN-ENGINE</text></g><g transform="translate(426.3409843444824,545 )" id="entity-TOKENSTORE-d46c22fb-81ea-578a-b5ff-4a04d6558f61"><rect height="75" width="104.27083587646484" y="0" x="0" class="er entityBox"/><text style="dominant-baseline: middle; text-anchor: middle; font-size: 12px;" transform="translate(52.13541793823242,37.5)" y="0" x="0" id="text-entity-TOKENSTORE-d46c22fb-81ea-578a-b5ff-4a04d6558f61" class="er entityLabel">TOKEN-STORE</text></g><g transform="translate(632.9384784698486,195 )" id="entity-MODELSTORE-da1d3c04-2357-5c7b-be5d-49aa16ddf07c"><rect height="75" width="105.34896087646484" y="0" x="0" class="er entityBox"/><text style="dominant-baseline: middle; text-anchor: middle; font-size: 12px;" transform="translate(52.67448043823242,37.5)" y="0" x="0" id="text-entity-MODELSTORE-da1d3c04-2357-5c7b-be5d-49aa16ddf07c" class="er entityLabel">MODEL-STORE</text></g><g transform="translate(635.612958908081,370 )" id="entity-MODEL-ac5f2eec-271c-5885-aa63-b762a8e597da"><rect height="75" width="100" y="0" x="0" class="er entityBox"/><text style="dominant-baseline: middle; text-anchor: middle; font-size: 12px;" transform="translate(50,37.5)" y="0" x="0" id="text-entity-MODEL-ac5f2eec-271c-5885-aa63-b762a8e597da" class="er entityLabel">MODEL</text></g><g transform="translate(850.6044979095459,195 )" id="entity-RULESTORE-1cfd1e6e-49fb-5d6e-bce6-2aeb99693ed7"><rect height="75" width="100" y="0" x="0" class="er entityBox"/><text style="dominant-baseline: middle; text-anchor: middle; font-size: 12px;" transform="translate(50,37.5)" y="0" x="0" id="text-entity-RULESTORE-1cfd1e6e-49fb-5d6e-bce6-2aeb99693ed7" class="er entityLabel">RULE-STORE</text></g><g transform="translate(835.612958908081,370 )" id="entity-VALIDATIONRULES-3f4923e6-535a-583e-a798-5abd6216558d"><rect height="75" width="129.9830780029297" y="0" x="0" class="er entityBox"/><text style="dominant-baseline: middle; text-anchor: middle; font-size: 12px;" transform="translate(64.99153900146484,37.5)" y="0" x="0" id="text-entity-VALIDATIONRULES-3f4923e6-535a-583e-a798-5abd6216558d" class="er entityLabel">VALIDATION-RULES</text></g><rect height="14" width="22.822917938232422" y="105.09376525878906" x="219.6236972808838" class="er relationshipLabelBox"/><text style="text-anchor: middle; dominant-baseline: middle; font-size: 12px;" y="112.09376525878906" x="231.03515625" id="rel2392" class="er relationshipLabel">uses</text><rect height="14" width="22.822917938232422" y="313" x="58.65267372131348" class="er relationshipLabelBox"/><text style="text-anchor: middle; dominant-baseline: middle; font-size: 12px;" y="320" x="70.06413269042969" id="rel2393" class="er relationshipLabel">uses</text><rect height="14" width="22.822917938232422" y="130.11354064941406" x="379.84397315979004" class="er relationshipLabelBox"/><text style="text-anchor: middle; dominant-baseline: middle; font-size: 12px;" y="137.11354064941406" x="391.25543212890625" id="rel2394" class="er relationshipLabel">uses</text><rect height="14" width="22.822917938232422" y="305.30804443359375" x="276.82700538635254" class="er relationshipLabelBox"/><text style="text-anchor: middle; dominant-baseline: middle; font-size: 12px;" y="312.30804443359375" x="288.23846435546875" id="rel2395" class="er relationshipLabel">uses</text><rect height="14" width="22.822917938232422" y="305.3080749511719" x="452.14109230041504" class="er relationshipLabelBox"/><text style="text-anchor: middle; dominant-baseline: middle; font-size: 12px;" y="312.3080749511719" x="463.55255126953125" id="rel2396" class="er relationshipLabel">uses</text><rect height="14" width="22.822917938232422" y="488" x="467.06495094299316" class="er relationshipLabelBox"/><text style="text-anchor: middle; dominant-baseline: middle; font-size: 12px;" y="495" x="478.4764099121094" id="rel2397" class="er relationshipLabel">uses</text><rect height="14" width="22.822917938232422" y="116.4843978881836" x="618.2957553863525" class="er relationshipLabelBox"/><text style="text-anchor: middle; dominant-baseline: middle; font-size: 12px;" y="123.4843978881836" x="629.7072143554688" id="rel2398" class="er relationshipLabel">uses</text><rect height="14" width="22.822917938232422" y="313" x="674.2015171051025" class="er relationshipLabelBox"/><text style="text-anchor: middle; dominant-baseline: middle; font-size: 12px;" y="320" x="685.6129760742188" id="rel2399" class="er relationshipLabel">uses</text><rect height="14" width="22.822917938232422" y="104.83810424804688" x="723.23215675354" class="er relationshipLabelBox"/><text style="text-anchor: middle; dominant-baseline: middle; font-size: 12px;" y="111.83810424804688" x="734.6436157226562" id="rel2400" class="er relationshipLabel">uses</text><rect height="14" width="22.822917938232422" y="313" x="889.1930332183838" class="er relationshipLabelBox"/><text style="text-anchor: middle; dominant-baseline: middle; font-size: 12px;" y="320" x="900.6044921875" id="rel2401" class="er relationshipLabel">uses</text><text class="entityTitleText" y="-25" x="492.79803466796875">Parse modules [2.26.23]</text></svg>