<svg aria-labelledby="chart-title-mermaid-1660607179437 chart-desc-mermaid-1660607179437" role="img" viewBox="0 0 967.4036254882812 640" style="max-width: 967.404px; background-color: rgb(255, 255, 255);" height="640" xmlns="http://www.w3.org/2000/svg" width="100%" id="mermaid-1660607179437"><title id="chart-title-mermaid-1660607179437"/><desc id="chart-desc-mermaid-1660607179437"/><style>#mermaid-1660607179437 {font-family:"trebuchet ms",verdana,arial,sans-serif;font-size:16px;fill:#333;}#mermaid-1660607179437 .error-icon{fill:#552222;}#mermaid-1660607179437 .error-text{fill:#552222;stroke:#552222;}#mermaid-1660607179437 .edge-thickness-normal{stroke-width:2px;}#mermaid-1660607179437 .edge-thickness-thick{stroke-width:3.5px;}#mermaid-1660607179437 .edge-pattern-solid{stroke-dasharray:0;}#mermaid-1660607179437 .edge-pattern-dashed{stroke-dasharray:3;}#mermaid-1660607179437 .edge-pattern-dotted{stroke-dasharray:2;}#mermaid-1660607179437 .marker{fill:#333333;stroke:#333333;}#mermaid-1660607179437 .marker.cross{stroke:#333333;}#mermaid-1660607179437 svg{font-family:"trebuchet ms",verdana,arial,sans-serif;font-size:16px;}#mermaid-1660607179437 .entityBox{fill:#ECECFF;stroke:#9370DB;}#mermaid-1660607179437 .attributeBoxOdd{fill:#ffffff;stroke:#9370DB;}#mermaid-1660607179437 .attributeBoxEven{fill:#f2f2f2;stroke:#9370DB;}#mermaid-1660607179437 .relationshipLabelBox{fill:hsl(80, 100%, 96.2745098039%);opacity:0.7;background-color:hsl(80, 100%, 96.2745098039%);}#mermaid-1660607179437 .relationshipLabelBox rect{opacity:0.5;}#mermaid-1660607179437 .relationshipLine{stroke:#333333;}#mermaid-1660607179437 :root{--mermaid-font-family:"trebuchet ms",verdana,arial,sans-serif;}</style><g/><defs><marker orient="auto" markerHeight="18" markerWidth="18" refY="9" refX="0" id="ONLY_ONE_START"><path d="M9,0 L9,18 M15,0 L15,18" fill="none" stroke="gray"/></marker></defs><defs><marker orient="auto" markerHeight="18" markerWidth="18" refY="9" refX="18" id="ONLY_ONE_END"><path d="M3,0 L3,18 M9,0 L9,18" fill="none" stroke="gray"/></marker></defs><defs><marker orient="auto" markerHeight="18" markerWidth="30" refY="9" refX="0" id="ZERO_OR_ONE_START"><circle r="6" cy="9" cx="21" fill="white" stroke="gray"/><path d="M9,0 L9,18" fill="none" stroke="gray"/></marker></defs><defs><marker orient="auto" markerHeight="18" markerWidth="30" refY="9" refX="30" id="ZERO_OR_ONE_END"><circle r="6" cy="9" cx="9" fill="white" stroke="gray"/><path d="M21,0 L21,18" fill="none" stroke="gray"/></marker></defs><defs><marker orient="auto" markerHeight="36" markerWidth="45" refY="18" refX="18" id="ONE_OR_MORE_START"><path d="M0,18 Q 18,0 36,18 Q 18,36 0,18 M42,9 L42,27" fill="none" stroke="gray"/></marker></defs><defs><marker orient="auto" markerHeight="36" markerWidth="45" refY="18" refX="27" id="ONE_OR_MORE_END"><path d="M3,9 L3,27 M9,18 Q27,0 45,18 Q27,36 9,18" fill="none" stroke="gray"/></marker></defs><defs><marker orient="auto" markerHeight="36" markerWidth="57" refY="18" refX="18" id="ZERO_OR_MORE_START"><circle r="6" cy="18" cx="48" fill="white" stroke="gray"/><path d="M0,18 Q18,0 36,18 Q18,36 0,18" fill="none" stroke="gray"/></marker></defs><defs><marker orient="auto" markerHeight="36" markerWidth="57" refY="18" refX="39" id="ZERO_OR_MORE_END"><circle r="6" cy="18" cx="9" fill="white" stroke="gray"/><path d="M21,18 Q39,0 57,18 Q39,36 21,18" fill="none" stroke="gray"/></marker></defs><path marker-start="url(#ZERO_OR_ONE_START)" marker-end="url(#ZERO_OR_MORE_END)" fill="none" stroke="gray" d="M106.47396087646484,95L106.47396087646484,103.33333333333333C106.47396087646484,111.66666666666667,106.47396087646484,128.33333333333334,106.47396087646484,145C106.47396087646484,161.66666666666666,106.47396087646484,178.33333333333334,106.47396087646484,186.66666666666666L106.47396087646484,195" class="er relationshipLine"/><path marker-start="url(#ZERO_OR_ONE_START)" marker-end="url(#ZERO_OR_MORE_END)" fill="none" stroke="gray" d="M106.47396087646484,270L106.47396087646484,278.3333333333333C106.47396087646484,286.6666666666667,106.47396087646484,303.3333333333333,106.47396087646484,320C106.47396087646484,336.6666666666667,106.47396087646484,353.3333333333333,106.47396087646484,361.6666666666667L106.47396087646484,370" class="er relationshipLine"/><path marker-start="url(#ZERO_OR_ONE_START)" marker-end="url(#ZERO_OR_ONE_END)" fill="none" stroke="gray" d="M106.47396087646484,445L106.47396087646484,453.3333333333333C106.47396087646484,461.6666666666667,106.47396087646484,478.3333333333333,178.10183652242026,499.7301658287926C249.72971216837564,521.1269983242519,392.98546346028644,547.2539966485039,464.6133391062419,560.3174958106298L536.2412147521973,573.3809949727557" class="er relationshipLine"/><path marker-start="url(#ZERO_OR_ONE_START)" marker-end="url(#ZERO_OR_ONE_END)" fill="none" stroke="gray" d="M359.0133514404297,445L359.0133514404297,453.3333333333333C359.0133514404297,461.6666666666667,359.0133514404297,478.3333333333333,388.5513286590576,498.04103321203957C418.08930587768555,517.7487330907459,477.1652603149414,540.4974661814917,506.70323753356934,551.8718327268647L536.2412147521973,563.2461992722376" class="er relationshipLine"/><path marker-start="url(#ZERO_OR_ONE_START)" marker-end="url(#ZERO_OR_ONE_END)" fill="none" stroke="gray" d="M586.2412147521973,445L586.2412147521973,453.3333333333333C586.2412147521973,461.6666666666667,586.2412147521973,478.3333333333333,586.2412147521973,495C586.2412147521973,511.6666666666667,586.2412147521973,528.3333333333334,586.2412147521973,536.6666666666666L586.2412147521973,545" class="er relationshipLine"/><path marker-start="url(#ZERO_OR_ONE_START)" marker-end="url(#ZERO_OR_MORE_END)" fill="none" stroke="gray" d="M359.0133514404297,270L359.0133514404297,278.3333333333333C359.0133514404297,286.6666666666667,359.0133514404297,303.3333333333333,359.0133514404297,320C359.0133514404297,336.6666666666667,359.0133514404297,353.3333333333333,359.0133514404297,361.6666666666667L359.0133514404297,370" class="er relationshipLine"/><path marker-start="url(#ZERO_OR_MORE_START)" marker-end="url(#ZERO_OR_ONE_END)" fill="none" stroke="gray" d="M797.4036483764648,445L797.4036483764648,453.3333333333333C797.4036483764648,461.6666666666667,797.4036483764648,478.3333333333333,770.5432427724203,497.79689210504125C743.6828371683756,517.2604508767491,689.9620259602865,539.5209017534983,663.1016203562418,550.6511271918729L636.2412147521973,561.7813526302474" class="er relationshipLine"/><path marker-start="url(#ZERO_OR_MORE_START)" marker-end="url(#ZERO_OR_MORE_END)" fill="none" stroke="gray" d="M904.546505519322,270L911.6893626621791,278.3333333333333C918.8322198050363,286.6666666666667,933.1179340907505,303.3333333333333,940.2607912336076,326.25C947.4036483764648,349.1666666666667,947.4036483764648,378.3333333333333,947.4036483764648,407.5C947.4036483764648,436.6666666666667,947.4036483764648,465.8333333333333,895.5432427724203,492.981056170905C843.6828371683756,520.1287790084766,739.9620259602865,545.2575580169531,688.1016203562418,557.8219475211914L636.2412147521973,570.3863370254297" class="er relationshipLine"/><path marker-start="url(#ZERO_OR_MORE_START)" marker-end="url(#ZERO_OR_MORE_END)" fill="none" stroke="gray" d="M840.2607912336077,270L833.1179340907506,278.3333333333333C825.9750769478934,286.6666666666667,811.6893626621792,303.3333333333333,804.5465055193221,320C797.4036483764648,336.6666666666667,797.4036483764648,353.3333333333333,797.4036483764648,361.6666666666667L797.4036483764648,370" class="er relationshipLine"/><g transform="translate(44.22526168823242,20 )" id="PATTERN-LIBRARY"><rect height="75" width="124.49739837646484" y="0" x="0" stroke="gray" fill-opacity="100%" fill="honeydew" class="er entityBox"/><text transform="translate(62.24869918823242,37.5)" style="font-family: &quot;trebuchet ms&quot;, verdana, arial, sans-serif;; font-size: 12px" text-anchor="middle" dominant-baseline="middle" y="0" x="0" id="entity-PATTERN-LIBRARY" class="er entityLabel">PATTERN-LIBRARY</text></g><g transform="translate(35.895835876464844,195 )" id="PATTERN-DEFINITION"><rect height="75" width="141.15625" y="0" x="0" stroke="gray" fill-opacity="100%" fill="honeydew" class="er entityBox"/><text transform="translate(70.578125,37.5)" style="font-family: &quot;trebuchet ms&quot;, verdana, arial, sans-serif;; font-size: 12px" text-anchor="middle" dominant-baseline="middle" y="0" x="0" id="entity-PATTERN-DEFINITION" class="er entityLabel">PATTERN-DEFINITION</text></g><g transform="translate(20,370 )" id="PATTERM-IMPLEMENTATION"><rect height="75" width="172.9479217529297" y="0" x="0" stroke="gray" fill-opacity="100%" fill="honeydew" class="er entityBox"/><text transform="translate(86.47396087646484,37.5)" style="font-family: &quot;trebuchet ms&quot;, verdana, arial, sans-serif;; font-size: 12px" text-anchor="middle" dominant-baseline="middle" y="0" x="0" id="entity-PATTERM-IMPLEMENTATION" class="er entityLabel">PATTERM-IMPLEMENTATION</text></g><g transform="translate(536.2412147521973,545 )" id="TEMPLATE"><rect height="75" width="100" y="0" x="0" stroke="gray" fill-opacity="100%" fill="honeydew" class="er entityBox"/><text transform="translate(50,37.5)" style="font-family: &quot;trebuchet ms&quot;, verdana, arial, sans-serif;; font-size: 12px" text-anchor="middle" dominant-baseline="middle" y="0" x="0" id="entity-TEMPLATE" class="er entityLabel">TEMPLATE</text></g><g transform="translate(292.9479217529297,370 )" id="TEMPLATE-SCHEMA"><rect height="75" width="132.130859375" y="0" x="0" stroke="gray" fill-opacity="100%" fill="honeydew" class="er entityBox"/><text transform="translate(66.0654296875,37.5)" style="font-family: &quot;trebuchet ms&quot;, verdana, arial, sans-serif;; font-size: 12px" text-anchor="middle" dominant-baseline="middle" y="0" x="0" id="entity-TEMPLATE-SCHEMA" class="er entityLabel">TEMPLATE-SCHEMA</text></g><g transform="translate(525.0787811279297,370 )" id="TEMPLATE-RULES"><rect height="75" width="122.32487487792969" y="0" x="0" stroke="gray" fill-opacity="100%" fill="honeydew" class="er entityBox"/><text transform="translate(61.162437438964844,37.5)" style="font-family: &quot;trebuchet ms&quot;, verdana, arial, sans-serif;; font-size: 12px" text-anchor="middle" dominant-baseline="middle" y="0" x="0" id="entity-TEMPLATE-RULES" class="er entityLabel">TEMPLATE-RULES</text></g><g transform="translate(309.0133514404297,195 )" id="ARCHTYPE"><rect height="75" width="100" y="0" x="0" stroke="gray" fill-opacity="100%" fill="honeydew" class="er entityBox"/><text transform="translate(50,37.5)" style="font-family: &quot;trebuchet ms&quot;, verdana, arial, sans-serif;; font-size: 12px" text-anchor="middle" dominant-baseline="middle" y="0" x="0" id="entity-ARCHTYPE" class="er entityLabel">ARCHTYPE</text></g><g transform="translate(747.4036483764648,370 )" id="UNIT"><rect height="75" width="100" y="0" x="0" stroke="gray" fill-opacity="100%" fill="honeydew" class="er entityBox"/><text transform="translate(50,37.5)" style="font-family: &quot;trebuchet ms&quot;, verdana, arial, sans-serif;; font-size: 12px" text-anchor="middle" dominant-baseline="middle" y="0" x="0" id="entity-UNIT" class="er entityLabel">UNIT</text></g><g transform="translate(822.4036483764648,195 )" id="COMPONENT"><rect height="75" width="100" y="0" x="0" stroke="gray" fill-opacity="100%" fill="honeydew" class="er entityBox"/><text transform="translate(50,37.5)" style="font-family: &quot;trebuchet ms&quot;, verdana, arial, sans-serif;; font-size: 12px" text-anchor="middle" dominant-baseline="middle" y="0" x="0" id="entity-COMPONENT" class="er entityLabel">COMPONENT</text></g><rect fill-opacity="85%" fill="white" height="14" width="21.4375" y="138" x="95.75521087646484" class="er relationshipLabelBox"/><text style="font-family: &quot;trebuchet ms&quot;, verdana, arial, sans-serif;; font-size: 12px" dominant-baseline="middle" text-anchor="middle" y="145" x="106.47396087646484" id="rel61" class="er relationshipLabel">lists</text><rect fill-opacity="85%" fill="white" height="14" width="57.302085876464844" y="313" x="77.82291793823242" class="er relationshipLabelBox"/><text style="font-family: &quot;trebuchet ms&quot;, verdana, arial, sans-serif;; font-size: 12px" dominant-baseline="middle" text-anchor="middle" y="320" x="106.47396087646484" id="rel62" class="er relationshipLabel">references</text><rect fill-opacity="85%" fill="white" height="14" width="44.84375" y="523.444091796875" x="285.6436767578125" class="er relationshipLabelBox"/><text style="font-family: &quot;trebuchet ms&quot;, verdana, arial, sans-serif;; font-size: 12px" dominant-baseline="middle" text-anchor="middle" y="530.444091796875" x="308.0655517578125" id="rel63" class="er relationshipLabel">contains</text><rect fill-opacity="85%" fill="white" height="14" width="55.989585876464844" y="513.860595703125" x="403.4071235656738" class="er relationshipLabelBox"/><text style="font-family: &quot;trebuchet ms&quot;, verdana, arial, sans-serif;; font-size: 12px" dominant-baseline="middle" text-anchor="middle" y="520.860595703125" x="431.40191650390625" id="rel64" class="er relationshipLabel">structured</text><rect fill-opacity="85%" fill="white" height="14" width="58.63346481323242" y="488" x="556.9244785308838" class="er relationshipLabelBox"/><text style="font-family: &quot;trebuchet ms&quot;, verdana, arial, sans-serif;; font-size: 12px" dominant-baseline="middle" text-anchor="middle" y="495" x="586.2412109375" id="rel65" class="er relationshipLabel">defined-by</text><rect fill-opacity="85%" fill="white" height="14" width="39.052085876464844" y="313" x="339.4873237609863" class="er relationshipLabelBox"/><text style="font-family: &quot;trebuchet ms&quot;, verdana, arial, sans-serif;; font-size: 12px" dominant-baseline="middle" text-anchor="middle" y="320" x="359.01336669921875" id="rel66" class="er relationshipLabel">defines</text><rect fill-opacity="85%" fill="white" height="14" width="45.675132751464844" y="512.4517822265625" x="710.3653755187988" class="er relationshipLabelBox"/><text style="font-family: &quot;trebuchet ms&quot;, verdana, arial, sans-serif;; font-size: 12px" dominant-baseline="middle" text-anchor="middle" y="519.4517822265625" x="733.2029418945312" id="rel67" class="er relationshipLabel">made-of</text><rect fill-opacity="85%" fill="white" height="14" width="45.675132751464844" y="489.287353515625" x="866.1163520812988" class="er relationshipLabelBox"/><text style="font-family: &quot;trebuchet ms&quot;, verdana, arial, sans-serif;; font-size: 12px" dominant-baseline="middle" text-anchor="middle" y="496.287353515625" x="888.9539184570312" id="rel68" class="er relationshipLabel">made-of</text><rect fill-opacity="85%" fill="white" height="14" width="45.675132751464844" y="308.1257019042969" x="783.9925727844238" class="er relationshipLabelBox"/><text style="font-family: &quot;trebuchet ms&quot;, verdana, arial, sans-serif;; font-size: 12px" dominant-baseline="middle" text-anchor="middle" y="315.1257019042969" x="806.8301391601562" id="rel69" class="er relationshipLabel">made-of</text></svg>