<svg aria-labelledby="chart-title-mermaid-1660177135644 chart-desc-mermaid-1660177135644" role="img" viewBox="0 0 262.421875 1165" style="max-width: 262.422px; background-color: rgb(255, 255, 255);" height="1165" xmlns="http://www.w3.org/2000/svg" width="100%" id="mermaid-1660177135644"><title id="chart-title-mermaid-1660177135644"/><desc id="chart-desc-mermaid-1660177135644"/><style>#mermaid-1660177135644 {font-family:"trebuchet ms",verdana,arial,sans-serif;font-size:16px;fill:#333;}#mermaid-1660177135644 .error-icon{fill:#552222;}#mermaid-1660177135644 .error-text{fill:#552222;stroke:#552222;}#mermaid-1660177135644 .edge-thickness-normal{stroke-width:2px;}#mermaid-1660177135644 .edge-thickness-thick{stroke-width:3.5px;}#mermaid-1660177135644 .edge-pattern-solid{stroke-dasharray:0;}#mermaid-1660177135644 .edge-pattern-dashed{stroke-dasharray:3;}#mermaid-1660177135644 .edge-pattern-dotted{stroke-dasharray:2;}#mermaid-1660177135644 .marker{fill:#333333;stroke:#333333;}#mermaid-1660177135644 .marker.cross{stroke:#333333;}#mermaid-1660177135644 svg{font-family:"trebuchet ms",verdana,arial,sans-serif;font-size:16px;}#mermaid-1660177135644 .entityBox{fill:#ECECFF;stroke:#9370DB;}#mermaid-1660177135644 .attributeBoxOdd{fill:#ffffff;stroke:#9370DB;}#mermaid-1660177135644 .attributeBoxEven{fill:#f2f2f2;stroke:#9370DB;}#mermaid-1660177135644 .relationshipLabelBox{fill:hsl(80, 100%, 96.2745098039%);opacity:0.7;background-color:hsl(80, 100%, 96.2745098039%);}#mermaid-1660177135644 .relationshipLabelBox rect{opacity:0.5;}#mermaid-1660177135644 .relationshipLine{stroke:#333333;}#mermaid-1660177135644 :root{--mermaid-font-family:"trebuchet ms",verdana,arial,sans-serif;}</style><g/><defs><marker orient="auto" markerHeight="18" markerWidth="18" refY="9" refX="0" id="ONLY_ONE_START"><path d="M9,0 L9,18 M15,0 L15,18" fill="none" stroke="gray"/></marker></defs><defs><marker orient="auto" markerHeight="18" markerWidth="18" refY="9" refX="18" id="ONLY_ONE_END"><path d="M3,0 L3,18 M9,0 L9,18" fill="none" stroke="gray"/></marker></defs><defs><marker orient="auto" markerHeight="18" markerWidth="30" refY="9" refX="0" id="ZERO_OR_ONE_START"><circle r="6" cy="9" cx="21" fill="white" stroke="gray"/><path d="M9,0 L9,18" fill="none" stroke="gray"/></marker></defs><defs><marker orient="auto" markerHeight="18" markerWidth="30" refY="9" refX="30" id="ZERO_OR_ONE_END"><circle r="6" cy="9" cx="9" fill="white" stroke="gray"/><path d="M21,0 L21,18" fill="none" stroke="gray"/></marker></defs><defs><marker orient="auto" markerHeight="36" markerWidth="45" refY="18" refX="18" id="ONE_OR_MORE_START"><path d="M0,18 Q 18,0 36,18 Q 18,36 0,18 M42,9 L42,27" fill="none" stroke="gray"/></marker></defs><defs><marker orient="auto" markerHeight="36" markerWidth="45" refY="18" refX="27" id="ONE_OR_MORE_END"><path d="M3,9 L3,27 M9,18 Q27,0 45,18 Q27,36 9,18" fill="none" stroke="gray"/></marker></defs><defs><marker orient="auto" markerHeight="36" markerWidth="57" refY="18" refX="18" id="ZERO_OR_MORE_START"><circle r="6" cy="18" cx="48" fill="white" stroke="gray"/><path d="M0,18 Q18,0 36,18 Q18,36 0,18" fill="none" stroke="gray"/></marker></defs><defs><marker orient="auto" markerHeight="36" markerWidth="57" refY="18" refX="39" id="ZERO_OR_MORE_END"><circle r="6" cy="18" cx="9" fill="white" stroke="gray"/><path d="M21,18 Q39,0 57,18 Q39,36 21,18" fill="none" stroke="gray"/></marker></defs><path marker-start="url(#ZERO_OR_ONE_START)" marker-end="url(#ZERO_OR_ONE_END)" fill="none" stroke="gray" d="M145,95L145,103.33333333333333C145,111.66666666666667,145,128.33333333333334,145,145C145,161.66666666666666,145,178.33333333333334,145,186.66666666666666L145,195" class="er relationshipLine"/><path marker-start="url(#ZERO_OR_ONE_START)" marker-end="url(#ZERO_OR_ONE_END)" fill="none" stroke="gray" d="M145,270L145,278.3333333333333C145,286.6666666666667,145,303.3333333333333,145,320C145,336.6666666666667,145,353.3333333333333,145,361.6666666666667L145,370" class="er relationshipLine"/><path marker-start="url(#ONE_OR_MORE_START)" marker-end="url(#ONE_OR_MORE_END)" fill="none" stroke="gray" d="M145,445L145,453.3333333333333C145,461.6666666666667,145,478.3333333333333,145,495C145,511.6666666666667,145,528.3333333333334,145,536.6666666666666L145,545" class="er relationshipLine"/><path marker-start="url(#ONE_OR_MORE_START)" marker-end="url(#ONE_OR_MORE_END)" fill="none" stroke="gray" d="M145,620L145,628.3333333333334C145,636.6666666666666,145,653.3333333333334,145,670C145,686.6666666666666,145,703.3333333333334,145,711.6666666666666L145,720" class="er relationshipLine"/><path marker-start="url(#ONE_OR_MORE_START)" marker-end="url(#ONE_OR_MORE_END)" fill="none" stroke="gray" d="M112.85714285714286,795L105.71428571428572,803.3333333333334C98.57142857142857,811.6666666666666,84.28571428571429,828.3333333333334,77.14285714285715,845C70,861.6666666666666,70,878.3333333333334,70,886.6666666666666L70,895" class="er relationshipLine"/><path marker-start="url(#ZERO_OR_MORE_START)" marker-end="url(#ZERO_OR_MORE_END)" fill="none" stroke="gray" d="M70,970L70,978.3333333333334C70,986.6666666666666,70,1003.3333333333334,77.14285714285715,1020C84.28571428571429,1036.6666666666667,98.57142857142857,1053.3333333333333,105.71428571428572,1061.6666666666667L112.85714285714286,1070" class="er relationshipLine"/><path marker-start="url(#ZERO_OR_MORE_START)" marker-end="url(#ZERO_OR_MORE_END)" fill="none" stroke="gray" d="M177.14285714285714,795L184.2857142857143,803.3333333333334C191.42857142857142,811.6666666666666,205.7142857142857,828.3333333333334,212.85714285714286,851.25C220,874.1666666666666,220,903.3333333333334,220,932.5C220,961.6666666666666,220,990.8333333333334,212.85714285714286,1013.75C205.7142857142857,1036.6666666666667,191.42857142857142,1053.3333333333333,184.2857142857143,1061.6666666666667L177.14285714285714,1070" class="er relationshipLine"/><g transform="translate(95,20 )" id="PORTFOLIO"><rect height="75" width="100" y="0" x="0" stroke="gray" fill-opacity="100%" fill="honeydew" class="er entityBox"/><text transform="translate(50,37.5)" style="font-family: &quot;trebuchet ms&quot;, verdana, arial, sans-serif;; font-size: 12px" text-anchor="middle" dominant-baseline="middle" y="0" x="0" id="entity-PORTFOLIO" class="er entityLabel">PORTFOLIO</text></g><g transform="translate(95,195 )" id="DOMAIN"><rect height="75" width="100" y="0" x="0" stroke="gray" fill-opacity="100%" fill="honeydew" class="er entityBox"/><text transform="translate(50,37.5)" style="font-family: &quot;trebuchet ms&quot;, verdana, arial, sans-serif;; font-size: 12px" text-anchor="middle" dominant-baseline="middle" y="0" x="0" id="entity-DOMAIN" class="er entityLabel">DOMAIN</text></g><g transform="translate(95,370 )" id="COLLECTION"><rect height="75" width="100" y="0" x="0" stroke="gray" fill-opacity="100%" fill="honeydew" class="er entityBox"/><text transform="translate(50,37.5)" style="font-family: &quot;trebuchet ms&quot;, verdana, arial, sans-serif;; font-size: 12px" text-anchor="middle" dominant-baseline="middle" y="0" x="0" id="entity-COLLECTION" class="er entityLabel">COLLECTION</text></g><g transform="translate(95,545 )" id="PATH"><rect height="75" width="100" y="0" x="0" stroke="gray" fill-opacity="100%" fill="honeydew" class="er entityBox"/><text transform="translate(50,37.5)" style="font-family: &quot;trebuchet ms&quot;, verdana, arial, sans-serif;; font-size: 12px" text-anchor="middle" dominant-baseline="middle" y="0" x="0" id="entity-PATH" class="er entityLabel">PATH</text></g><g transform="translate(95,720 )" id="ARTIFACT"><rect height="75" width="100" y="0" x="0" stroke="gray" fill-opacity="100%" fill="honeydew" class="er entityBox"/><text transform="translate(50,37.5)" style="font-family: &quot;trebuchet ms&quot;, verdana, arial, sans-serif;; font-size: 12px" text-anchor="middle" dominant-baseline="middle" y="0" x="0" id="entity-ARTIFACT" class="er entityLabel">ARTIFACT</text></g><g transform="translate(20,895 )" id="UNIT"><rect height="75" width="100" y="0" x="0" stroke="gray" fill-opacity="100%" fill="honeydew" class="er entityBox"/><text transform="translate(50,37.5)" style="font-family: &quot;trebuchet ms&quot;, verdana, arial, sans-serif;; font-size: 12px" text-anchor="middle" dominant-baseline="middle" y="0" x="0" id="entity-UNIT" class="er entityLabel">UNIT</text></g><g transform="translate(95,1070 )" id="COMPONENT"><rect height="75" width="100" y="0" x="0" stroke="gray" fill-opacity="100%" fill="honeydew" class="er entityBox"/><text transform="translate(50,37.5)" style="font-family: &quot;trebuchet ms&quot;, verdana, arial, sans-serif;; font-size: 12px" text-anchor="middle" dominant-baseline="middle" y="0" x="0" id="entity-COMPONENT" class="er entityLabel">COMPONENT</text></g><rect fill-opacity="85%" fill="white" height="14" width="44.84375" y="138" x="122.578125" class="er relationshipLabelBox"/><text style="font-family: &quot;trebuchet ms&quot;, verdana, arial, sans-serif;; font-size: 12px" dominant-baseline="middle" text-anchor="middle" y="145" x="145" id="rel1" class="er relationshipLabel">contains</text><rect fill-opacity="85%" fill="white" height="14" width="44.84375" y="313" x="122.578125" class="er relationshipLabelBox"/><text style="font-family: &quot;trebuchet ms&quot;, verdana, arial, sans-serif;; font-size: 12px" dominant-baseline="middle" text-anchor="middle" y="320" x="145" id="rel2" class="er relationshipLabel">contains</text><rect fill-opacity="85%" fill="white" height="14" width="44.84375" y="488" x="122.578125" class="er relationshipLabelBox"/><text style="font-family: &quot;trebuchet ms&quot;, verdana, arial, sans-serif;; font-size: 12px" dominant-baseline="middle" text-anchor="middle" y="495" x="145" id="rel3" class="er relationshipLabel">contains</text><rect fill-opacity="85%" fill="white" height="14" width="44.84375" y="663" x="122.578125" class="er relationshipLabelBox"/><text style="font-family: &quot;trebuchet ms&quot;, verdana, arial, sans-serif;; font-size: 12px" dominant-baseline="middle" text-anchor="middle" y="670" x="145" id="rel4" class="er relationshipLabel">contains</text><rect fill-opacity="85%" fill="white" height="14" width="44.84375" y="833.125732421875" x="57.004554748535156" class="er relationshipLabelBox"/><text style="font-family: &quot;trebuchet ms&quot;, verdana, arial, sans-serif;; font-size: 12px" dominant-baseline="middle" text-anchor="middle" y="840.125732421875" x="79.42642974853516" id="rel5" class="er relationshipLabel">contains</text><rect fill-opacity="85%" fill="white" height="14" width="44.84375" y="1017.874267578125" x="57.004554748535156" class="er relationshipLabelBox"/><text style="font-family: &quot;trebuchet ms&quot;, verdana, arial, sans-serif;; font-size: 12px" dominant-baseline="middle" text-anchor="middle" y="1024.874267578125" x="79.42642974853516" id="rel6" class="er relationshipLabel">contains</text><rect fill-opacity="85%" fill="white" height="14" width="44.84375" y="925.5" x="197.578125" class="er relationshipLabelBox"/><text style="font-family: &quot;trebuchet ms&quot;, verdana, arial, sans-serif;; font-size: 12px" dominant-baseline="middle" text-anchor="middle" y="932.5" x="220" id="rel7" class="er relationshipLabel">contains</text></svg>