<svg aria-labelledby="chart-title-mermaid-1660778027699 chart-desc-mermaid-1660778027699" role="img" viewBox="0 0 1380.987060546875 640" style="max-width: 1380.99px; background-color: rgb(255, 255, 255);" height="640" xmlns="http://www.w3.org/2000/svg" width="100%" id="mermaid-1660778027699"><title id="chart-title-mermaid-1660778027699"/><desc id="chart-desc-mermaid-1660778027699"/><style>#mermaid-1660778027699 {font-family:"trebuchet ms",verdana,arial,sans-serif;font-size:16px;fill:#333;}#mermaid-1660778027699 .error-icon{fill:#552222;}#mermaid-1660778027699 .error-text{fill:#552222;stroke:#552222;}#mermaid-1660778027699 .edge-thickness-normal{stroke-width:2px;}#mermaid-1660778027699 .edge-thickness-thick{stroke-width:3.5px;}#mermaid-1660778027699 .edge-pattern-solid{stroke-dasharray:0;}#mermaid-1660778027699 .edge-pattern-dashed{stroke-dasharray:3;}#mermaid-1660778027699 .edge-pattern-dotted{stroke-dasharray:2;}#mermaid-1660778027699 .marker{fill:#333333;stroke:#333333;}#mermaid-1660778027699 .marker.cross{stroke:#333333;}#mermaid-1660778027699 svg{font-family:"trebuchet ms",verdana,arial,sans-serif;font-size:16px;}#mermaid-1660778027699 .entityBox{fill:#ECECFF;stroke:#9370DB;}#mermaid-1660778027699 .attributeBoxOdd{fill:#ffffff;stroke:#9370DB;}#mermaid-1660778027699 .attributeBoxEven{fill:#f2f2f2;stroke:#9370DB;}#mermaid-1660778027699 .relationshipLabelBox{fill:hsl(80, 100%, 96.2745098039%);opacity:0.7;background-color:hsl(80, 100%, 96.2745098039%);}#mermaid-1660778027699 .relationshipLabelBox rect{opacity:0.5;}#mermaid-1660778027699 .relationshipLine{stroke:#333333;}#mermaid-1660778027699 :root{--mermaid-font-family:"trebuchet ms",verdana,arial,sans-serif;}</style><g/><defs><marker orient="auto" markerHeight="18" markerWidth="18" refY="9" refX="0" id="ONLY_ONE_START"><path d="M9,0 L9,18 M15,0 L15,18" fill="none" stroke="gray"/></marker></defs><defs><marker orient="auto" markerHeight="18" markerWidth="18" refY="9" refX="18" id="ONLY_ONE_END"><path d="M3,0 L3,18 M9,0 L9,18" fill="none" stroke="gray"/></marker></defs><defs><marker orient="auto" markerHeight="18" markerWidth="30" refY="9" refX="0" id="ZERO_OR_ONE_START"><circle r="6" cy="9" cx="21" fill="white" stroke="gray"/><path d="M9,0 L9,18" fill="none" stroke="gray"/></marker></defs><defs><marker orient="auto" markerHeight="18" markerWidth="30" refY="9" refX="30" id="ZERO_OR_ONE_END"><circle r="6" cy="9" cx="9" fill="white" stroke="gray"/><path d="M21,0 L21,18" fill="none" stroke="gray"/></marker></defs><defs><marker orient="auto" markerHeight="36" markerWidth="45" refY="18" refX="18" id="ONE_OR_MORE_START"><path d="M0,18 Q 18,0 36,18 Q 18,36 0,18 M42,9 L42,27" fill="none" stroke="gray"/></marker></defs><defs><marker orient="auto" markerHeight="36" markerWidth="45" refY="18" refX="27" id="ONE_OR_MORE_END"><path d="M3,9 L3,27 M9,18 Q27,0 45,18 Q27,36 9,18" fill="none" stroke="gray"/></marker></defs><defs><marker orient="auto" markerHeight="36" markerWidth="57" refY="18" refX="18" id="ZERO_OR_MORE_START"><circle r="6" cy="18" cx="48" fill="white" stroke="gray"/><path d="M0,18 Q18,0 36,18 Q18,36 0,18" fill="none" stroke="gray"/></marker></defs><defs><marker orient="auto" markerHeight="36" markerWidth="57" refY="18" refX="39" id="ZERO_OR_MORE_END"><circle r="6" cy="18" cx="9" fill="white" stroke="gray"/><path d="M21,18 Q39,0 57,18 Q39,36 21,18" fill="none" stroke="gray"/></marker></defs><path marker-start="url(#ZERO_OR_ONE_START)" marker-end="url(#ZERO_OR_MORE_END)" fill="none" stroke="gray" d="M106.47396087646484,95L106.47396087646484,103.33333333333333C106.47396087646484,111.66666666666667,106.47396087646484,128.33333333333334,106.47396087646484,145C106.47396087646484,161.66666666666666,106.47396087646484,178.33333333333334,106.47396087646484,186.66666666666666L106.47396087646484,195" class="er relationshipLine"/><path marker-start="url(#ZERO_OR_ONE_START)" marker-end="url(#ZERO_OR_MORE_END)" fill="none" stroke="gray" d="M106.47396087646484,270L106.47396087646484,278.3333333333333C106.47396087646484,286.6666666666667,106.47396087646484,303.3333333333333,106.47396087646484,320C106.47396087646484,336.6666666666667,106.47396087646484,353.3333333333333,106.47396087646484,361.6666666666667L106.47396087646484,370" class="er relationshipLine"/><path marker-start="url(#ZERO_OR_ONE_START)" marker-end="url(#ZERO_OR_ONE_END)" fill="none" stroke="gray" d="M106.47396087646484,445L106.47396087646484,453.3333333333333C106.47396087646484,461.6666666666667,106.47396087646484,478.3333333333333,213.2955754597982,500.1946586536106C320.11719004313153,522.0559839738879,533.7604192097982,549.1119679477757,640.5820337931315,562.6399599347196L747.4036483764648,576.1679519216635" class="er relationshipLine"/><path marker-start="url(#ZERO_OR_ONE_START)" marker-end="url(#ZERO_OR_ONE_END)" fill="none" stroke="gray" d="M359.0133514404297,445L359.0133514404297,453.3333333333333C359.0133514404297,461.6666666666667,359.0133514404297,478.3333333333333,423.74506759643555,499.5867180529247C488.4767837524414,520.8401027725162,617.9402160644531,546.6802055450323,682.671932220459,559.6002569312903L747.4036483764648,572.5203083175485" class="er relationshipLine"/><path marker-start="url(#ZERO_OR_ONE_START)" marker-end="url(#ZERO_OR_ONE_END)" fill="none" stroke="gray" d="M586.2412147521973,445L586.2412147521973,453.3333333333333C586.2412147521973,461.6666666666667,586.2412147521973,478.3333333333333,613.1016203562418,497.79689210504125C639.9620259602865,517.2604508767491,693.6828371683756,539.5209017534983,720.5432427724203,550.6511271918729L747.4036483764648,561.7813526302474" class="er relationshipLine"/><path marker-start="url(#ZERO_OR_ONE_START)" marker-end="url(#ZERO_OR_MORE_END)" fill="none" stroke="gray" d="M359.0133514404297,270L359.0133514404297,278.3333333333333C359.0133514404297,286.6666666666667,359.0133514404297,303.3333333333333,359.0133514404297,320C359.0133514404297,336.6666666666667,359.0133514404297,353.3333333333333,359.0133514404297,361.6666666666667L359.0133514404297,370" class="er relationshipLine"/><path marker-start="url(#ZERO_OR_MORE_START)" marker-end="url(#ZERO_OR_ONE_END)" fill="none" stroke="gray" d="M797.4036483764648,445L797.4036483764648,453.3333333333333C797.4036483764648,461.6666666666667,797.4036483764648,478.3333333333333,797.4036483764648,495C797.4036483764648,511.6666666666667,797.4036483764648,528.3333333333334,797.4036483764648,536.6666666666666L797.4036483764648,545" class="er relationshipLine"/><path marker-start="url(#ZERO_OR_MORE_START)" marker-end="url(#ZERO_OR_MORE_END)" fill="none" stroke="gray" d="M904.546505519322,270L911.6893626621791,278.3333333333333C918.8322198050363,286.6666666666667,933.1179340907505,303.3333333333333,940.2607912336076,326.25C947.4036483764648,349.1666666666667,947.4036483764648,378.3333333333333,947.4036483764648,407.5C947.4036483764648,436.6666666666667,947.4036483764648,465.8333333333333,930.7369817097982,490.1388888888889C914.0703150431315,514.4444444444445,880.7369817097982,533.8888888888889,864.0703150431315,543.6111111111112L847.4036483764648,553.3333333333334" class="er relationshipLine"/><path marker-start="url(#ZERO_OR_MORE_START)" marker-end="url(#ZERO_OR_MORE_END)" fill="none" stroke="gray" d="M840.2607912336077,270L833.1179340907506,278.3333333333333C825.9750769478934,286.6666666666667,811.6893626621792,303.3333333333333,804.5465055193221,320C797.4036483764648,336.6666666666667,797.4036483764648,353.3333333333333,797.4036483764648,361.6666666666667L797.4036483764648,370" class="er relationshipLine"/><path marker-start="url(#ONLY_ONE_START)" marker-end="url(#ONLY_ONE_END)" fill="none" stroke="gray" d="M1156.4869820731026,270L1146.6397597903297,278.3333333333333C1136.7925375075567,286.6666666666667,1117.098092942011,303.3333333333333,1107.2508706592378,320C1097.4036483764648,336.6666666666667,1097.4036483764648,353.3333333333333,1097.4036483764648,361.6666666666667L1097.4036483764648,370" class="er relationshipLine"/><path marker-start="url(#ONLY_ONE_START)" marker-end="url(#ONLY_ONE_END)" fill="none" stroke="gray" d="M1245.1119826180595,270L1254.9592049008324,278.3333333333333C1264.8064271836054,286.6666666666667,1284.5008717491512,303.3333333333333,1294.3480940319243,320C1304.1953163146973,336.6666666666667,1304.1953163146973,353.3333333333333,1304.1953163146973,361.6666666666667L1304.1953163146973,370" class="er relationshipLine"/><path marker-start="url(#ZERO_OR_ONE_START)" marker-end="url(#ONE_OR_MORE_END)" fill="none" stroke="gray" d="M1097.4036483764648,445L1097.4036483764648,453.3333333333333C1097.4036483764648,461.6666666666667,1097.4036483764648,478.3333333333333,1055.736981709798,498.8194444444444C1014.0703150431315,519.3055555555555,930.7369817097982,543.6111111111111,889.0703150431315,555.7638888888888L847.4036483764648,567.9166666666666" class="er relationshipLine"/><path marker-start="url(#ZERO_OR_ONE_START)" marker-end="url(#ONE_OR_MORE_END)" fill="none" stroke="gray" d="M1304.1953163146973,445L1304.1953163146973,453.3333333333333C1304.1953163146973,461.6666666666667,1304.1953163146973,478.3333333333333,1228.0633716583252,499.81121023134983C1151.9314270019531,521.2890871293664,999.667537689209,547.5781742587328,923.5355930328369,560.722717823416L847.4036483764648,573.8672613880992" class="er relationshipLine"/><g transform="translate(44.22526168823242,20 )" id="PATTERN-LIBRARY"><rect height="75" width="124.49739837646484" y="0" x="0" stroke="gray" fill-opacity="100%" fill="honeydew" class="er entityBox"/><text transform="translate(62.24869918823242,37.5)" style="font-family: &quot;trebuchet ms&quot;, verdana, arial, sans-serif;; font-size: 12px" text-anchor="middle" dominant-baseline="middle" y="0" x="0" id="entity-PATTERN-LIBRARY" class="er entityLabel">PATTERN-LIBRARY</text></g><g transform="translate(35.895835876464844,195 )" id="PATTERN-DEFINITION"><rect height="75" width="141.15625" y="0" x="0" stroke="gray" fill-opacity="100%" fill="honeydew" class="er entityBox"/><text transform="translate(70.578125,37.5)" style="font-family: &quot;trebuchet ms&quot;, verdana, arial, sans-serif;; font-size: 12px" text-anchor="middle" dominant-baseline="middle" y="0" x="0" id="entity-PATTERN-DEFINITION" class="er entityLabel">PATTERN-DEFINITION</text></g><g transform="translate(20,370 )" id="PATTERM-IMPLEMENTATION"><rect height="75" width="172.9479217529297" y="0" x="0" stroke="gray" fill-opacity="100%" fill="honeydew" class="er entityBox"/><text transform="translate(86.47396087646484,37.5)" style="font-family: &quot;trebuchet ms&quot;, verdana, arial, sans-serif;; font-size: 12px" text-anchor="middle" dominant-baseline="middle" y="0" x="0" id="entity-PATTERM-IMPLEMENTATION" class="er entityLabel">PATTERM-IMPLEMENTATION</text></g><g transform="translate(747.4036483764648,545 )" id="TEMPLATE"><rect height="75" width="100" y="0" x="0" stroke="gray" fill-opacity="100%" fill="honeydew" class="er entityBox"/><text transform="translate(50,37.5)" style="font-family: &quot;trebuchet ms&quot;, verdana, arial, sans-serif;; font-size: 12px" text-anchor="middle" dominant-baseline="middle" y="0" x="0" id="entity-TEMPLATE" class="er entityLabel">TEMPLATE</text></g><g transform="translate(292.9479217529297,370 )" id="TEMPLATE-SCHEMA"><rect height="75" width="132.130859375" y="0" x="0" stroke="gray" fill-opacity="100%" fill="honeydew" class="er entityBox"/><text transform="translate(66.0654296875,37.5)" style="font-family: &quot;trebuchet ms&quot;, verdana, arial, sans-serif;; font-size: 12px" text-anchor="middle" dominant-baseline="middle" y="0" x="0" id="entity-TEMPLATE-SCHEMA" class="er entityLabel">TEMPLATE-SCHEMA</text></g><g transform="translate(525.0787811279297,370 )" id="TEMPLATE-RULES"><rect height="75" width="122.32487487792969" y="0" x="0" stroke="gray" fill-opacity="100%" fill="honeydew" class="er entityBox"/><text transform="translate(61.162437438964844,37.5)" style="font-family: &quot;trebuchet ms&quot;, verdana, arial, sans-serif;; font-size: 12px" text-anchor="middle" dominant-baseline="middle" y="0" x="0" id="entity-TEMPLATE-RULES" class="er entityLabel">TEMPLATE-RULES</text></g><g transform="translate(309.0133514404297,195 )" id="ARCHETYPE"><rect height="75" width="100" y="0" x="0" stroke="gray" fill-opacity="100%" fill="honeydew" class="er entityBox"/><text transform="translate(50,37.5)" style="font-family: &quot;trebuchet ms&quot;, verdana, arial, sans-serif;; font-size: 12px" text-anchor="middle" dominant-baseline="middle" y="0" x="0" id="entity-ARCHETYPE" class="er entityLabel">ARCHETYPE</text></g><g transform="translate(747.4036483764648,370 )" id="UNIT"><rect height="75" width="100" y="0" x="0" stroke="gray" fill-opacity="100%" fill="honeydew" class="er entityBox"/><text transform="translate(50,37.5)" style="font-family: &quot;trebuchet ms&quot;, verdana, arial, sans-serif;; font-size: 12px" text-anchor="middle" dominant-baseline="middle" y="0" x="0" id="entity-UNIT" class="er entityLabel">UNIT</text></g><g transform="translate(822.4036483764648,195 )" id="COMPONENT"><rect height="75" width="100" y="0" x="0" stroke="gray" fill-opacity="100%" fill="honeydew" class="er entityBox"/><text transform="translate(50,37.5)" style="font-family: &quot;trebuchet ms&quot;, verdana, arial, sans-serif;; font-size: 12px" text-anchor="middle" dominant-baseline="middle" y="0" x="0" id="entity-COMPONENT" class="er entityLabel">COMPONENT</text></g><g transform="translate(1150.799482345581,195 )" id="PORTFOLIO"><rect height="75" width="100" y="0" x="0" stroke="gray" fill-opacity="100%" fill="honeydew" class="er entityBox"/><text transform="translate(50,37.5)" style="font-family: &quot;trebuchet ms&quot;, verdana, arial, sans-serif;; font-size: 12px" text-anchor="middle" dominant-baseline="middle" y="0" x="0" id="entity-PORTFOLIO" class="er entityLabel">PORTFOLIO</text></g><g transform="translate(1047.4036483764648,370 )" id="DOCDESIGN"><rect height="75" width="100" y="0" x="0" stroke="gray" fill-opacity="100%" fill="honeydew" class="er entityBox"/><text transform="translate(50,37.5)" style="font-family: &quot;trebuchet ms&quot;, verdana, arial, sans-serif;; font-size: 12px" text-anchor="middle" dominant-baseline="middle" y="0" x="0" id="entity-DOCDESIGN" class="er entityLabel">DOCDESIGN</text></g><g transform="translate(1247.4036483764648,370 )" id="MODULEDESIGN"><rect height="75" width="113.58333587646484" y="0" x="0" stroke="gray" fill-opacity="100%" fill="honeydew" class="er entityBox"/><text transform="translate(56.79166793823242,37.5)" style="font-family: &quot;trebuchet ms&quot;, verdana, arial, sans-serif;; font-size: 12px" text-anchor="middle" dominant-baseline="middle" y="0" x="0" id="entity-MODULEDESIGN" class="er entityLabel">MODULEDESIGN</text></g><rect fill-opacity="85%" fill="white" height="14" width="21.4375" y="138" x="95.75521087646484" class="er relationshipLabelBox"/><text style="font-family: &quot;trebuchet ms&quot;, verdana, arial, sans-serif;; font-size: 12px" dominant-baseline="middle" text-anchor="middle" y="145" x="106.47396087646484" id="rel27" class="er relationshipLabel">lists</text><rect fill-opacity="85%" fill="white" height="14" width="57.302085876464844" y="313" x="77.82291793823242" class="er relationshipLabelBox"/><text style="font-family: &quot;trebuchet ms&quot;, verdana, arial, sans-serif;; font-size: 12px" dominant-baseline="middle" text-anchor="middle" y="320" x="106.47396087646484" id="rel28" class="er relationshipLabel">references</text><rect fill-opacity="85%" fill="white" height="14" width="44.84375" y="525.8990478515625" x="392.8098449707031" class="er relationshipLabelBox"/><text style="font-family: &quot;trebuchet ms&quot;, verdana, arial, sans-serif;; font-size: 12px" dominant-baseline="middle" text-anchor="middle" y="532.8990478515625" x="415.2317199707031" id="rel29" class="er relationshipLabel">contains</text><rect fill-opacity="85%" fill="white" height="14" width="55.989585876464844" y="522.6619262695312" x="511.5164375305176" class="er relationshipLabelBox"/><text style="font-family: &quot;trebuchet ms&quot;, verdana, arial, sans-serif;; font-size: 12px" dominant-baseline="middle" text-anchor="middle" y="529.6619262695312" x="539.51123046875" id="rel30" class="er relationshipLabel">structured</text><rect fill-opacity="85%" fill="white" height="14" width="58.63346481323242" y="512.4517822265625" x="621.1251010894775" class="er relationshipLabelBox"/><text style="font-family: &quot;trebuchet ms&quot;, verdana, arial, sans-serif;; font-size: 12px" dominant-baseline="middle" text-anchor="middle" y="519.4517822265625" x="650.4418334960938" id="rel31" class="er relationshipLabel">defined-by</text><rect fill-opacity="85%" fill="white" height="14" width="39.052085876464844" y="313" x="339.4873237609863" class="er relationshipLabelBox"/><text style="font-family: &quot;trebuchet ms&quot;, verdana, arial, sans-serif;; font-size: 12px" dominant-baseline="middle" text-anchor="middle" y="320" x="359.01336669921875" id="rel32" class="er relationshipLabel">defines</text><rect fill-opacity="85%" fill="white" height="14" width="45.675132751464844" y="488" x="774.5660591125488" class="er relationshipLabelBox"/><text style="font-family: &quot;trebuchet ms&quot;, verdana, arial, sans-serif;; font-size: 12px" dominant-baseline="middle" text-anchor="middle" y="495" x="797.4036254882812" id="rel33" class="er relationshipLabel">made-of</text><rect fill-opacity="85%" fill="white" height="14" width="45.675132751464844" y="421.54107666015625" x="924.3313179016113" class="er relationshipLabelBox"/><text style="font-family: &quot;trebuchet ms&quot;, verdana, arial, sans-serif;; font-size: 12px" dominant-baseline="middle" text-anchor="middle" y="428.54107666015625" x="947.1688842773438" id="rel34" class="er relationshipLabel">made-of</text><rect fill-opacity="85%" fill="white" height="14" width="45.675132751464844" y="308.1257019042969" x="783.9925727844238" class="er relationshipLabelBox"/><text style="font-family: &quot;trebuchet ms&quot;, verdana, arial, sans-serif;; font-size: 12px" dominant-baseline="middle" text-anchor="middle" y="315.1257019042969" x="806.8301391601562" id="rel35" class="er relationshipLabel">made-of</text><rect fill-opacity="85%" fill="white" height="14" width="44.84375" y="305.2274169921875" x="1090.084716796875" class="er relationshipLabelBox"/><text style="font-family: &quot;trebuchet ms&quot;, verdana, arial, sans-serif;; font-size: 12px" dominant-baseline="middle" text-anchor="middle" y="312.2274169921875" x="1112.506591796875" id="rel36" class="er relationshipLabel">contains</text><rect fill-opacity="85%" fill="white" height="14" width="44.84375" y="305.2274475097656" x="1266.67041015625" class="er relationshipLabelBox"/><text style="font-family: &quot;trebuchet ms&quot;, verdana, arial, sans-serif;; font-size: 12px" dominant-baseline="middle" text-anchor="middle" y="312.2274475097656" x="1289.09228515625" id="rel37" class="er relationshipLabel">contains</text><rect fill-opacity="85%" fill="white" height="14" width="51.57291793823242" y="518.34521484375" x="961.9423007965088" class="er relationshipLabelBox"/><text style="font-family: &quot;trebuchet ms&quot;, verdana, arial, sans-serif;; font-size: 12px" dominant-baseline="middle" text-anchor="middle" y="525.34521484375" x="987.728759765625" id="rel38" class="er relationshipLabel">expresses</text><rect fill-opacity="85%" fill="white" height="14" width="51.57291793823242" y="523.8802490234375" x="1063.0596103668213" class="er relationshipLabelBox"/><text style="font-family: &quot;trebuchet ms&quot;, verdana, arial, sans-serif;; font-size: 12px" dominant-baseline="middle" text-anchor="middle" y="530.8802490234375" x="1088.8460693359375" id="rel39" class="er relationshipLabel">expresses</text></svg>