<svg aria-labelledby="chart-title-mermaid-1660770672511 chart-desc-mermaid-1660770672511" role="img" viewBox="0 0 262.421875 990" style="max-width: 262.422px; background-color: rgb(255, 255, 255);" height="990" xmlns="http://www.w3.org/2000/svg" width="100%" id="mermaid-1660770672511"><title id="chart-title-mermaid-1660770672511"/><desc id="chart-desc-mermaid-1660770672511"/><style>#mermaid-1660770672511 {font-family:"trebuchet ms",verdana,arial,sans-serif;font-size:16px;fill:#333;}#mermaid-1660770672511 .error-icon{fill:#552222;}#mermaid-1660770672511 .error-text{fill:#552222;stroke:#552222;}#mermaid-1660770672511 .edge-thickness-normal{stroke-width:2px;}#mermaid-1660770672511 .edge-thickness-thick{stroke-width:3.5px;}#mermaid-1660770672511 .edge-pattern-solid{stroke-dasharray:0;}#mermaid-1660770672511 .edge-pattern-dashed{stroke-dasharray:3;}#mermaid-1660770672511 .edge-pattern-dotted{stroke-dasharray:2;}#mermaid-1660770672511 .marker{fill:#333333;stroke:#333333;}#mermaid-1660770672511 .marker.cross{stroke:#333333;}#mermaid-1660770672511 svg{font-family:"trebuchet ms",verdana,arial,sans-serif;font-size:16px;}#mermaid-1660770672511 .entityBox{fill:#ECECFF;stroke:#9370DB;}#mermaid-1660770672511 .attributeBoxOdd{fill:#ffffff;stroke:#9370DB;}#mermaid-1660770672511 .attributeBoxEven{fill:#f2f2f2;stroke:#9370DB;}#mermaid-1660770672511 .relationshipLabelBox{fill:hsl(80, 100%, 96.2745098039%);opacity:0.7;background-color:hsl(80, 100%, 96.2745098039%);}#mermaid-1660770672511 .relationshipLabelBox rect{opacity:0.5;}#mermaid-1660770672511 .relationshipLine{stroke:#333333;}#mermaid-1660770672511 :root{--mermaid-font-family:"trebuchet ms",verdana,arial,sans-serif;}</style><g/><defs><marker orient="auto" markerHeight="18" markerWidth="18" refY="9" refX="0" id="ONLY_ONE_START"><path d="M9,0 L9,18 M15,0 L15,18" fill="none" stroke="gray"/></marker></defs><defs><marker orient="auto" markerHeight="18" markerWidth="18" refY="9" refX="18" id="ONLY_ONE_END"><path d="M3,0 L3,18 M9,0 L9,18" fill="none" stroke="gray"/></marker></defs><defs><marker orient="auto" markerHeight="18" markerWidth="30" refY="9" refX="0" id="ZERO_OR_ONE_START"><circle r="6" cy="9" cx="21" fill="white" stroke="gray"/><path d="M9,0 L9,18" fill="none" stroke="gray"/></marker></defs><defs><marker orient="auto" markerHeight="18" markerWidth="30" refY="9" refX="30" id="ZERO_OR_ONE_END"><circle r="6" cy="9" cx="9" fill="white" stroke="gray"/><path d="M21,0 L21,18" fill="none" stroke="gray"/></marker></defs><defs><marker orient="auto" markerHeight="36" markerWidth="45" refY="18" refX="18" id="ONE_OR_MORE_START"><path d="M0,18 Q 18,0 36,18 Q 18,36 0,18 M42,9 L42,27" fill="none" stroke="gray"/></marker></defs><defs><marker orient="auto" markerHeight="36" markerWidth="45" refY="18" refX="27" id="ONE_OR_MORE_END"><path d="M3,9 L3,27 M9,18 Q27,0 45,18 Q27,36 9,18" fill="none" stroke="gray"/></marker></defs><defs><marker orient="auto" markerHeight="36" markerWidth="57" refY="18" refX="18" id="ZERO_OR_MORE_START"><circle r="6" cy="18" cx="48" fill="white" stroke="gray"/><path d="M0,18 Q18,0 36,18 Q18,36 0,18" fill="none" stroke="gray"/></marker></defs><defs><marker orient="auto" markerHeight="36" markerWidth="57" refY="18" refX="39" id="ZERO_OR_MORE_END"><circle r="6" cy="18" cx="9" fill="white" stroke="gray"/><path d="M21,18 Q39,0 57,18 Q39,36 21,18" fill="none" stroke="gray"/></marker></defs><path marker-start="url(#ZERO_OR_ONE_START)" marker-end="url(#ZERO_OR_ONE_END)" fill="none" stroke="gray" d="M145,95L145,103.33333333333333C145,111.66666666666667,145,128.33333333333334,145,145C145,161.66666666666666,145,178.33333333333334,145,186.66666666666666L145,195" class="er relationshipLine"/><path marker-start="url(#ONE_OR_MORE_START)" marker-end="url(#ONE_OR_MORE_END)" fill="none" stroke="gray" d="M145,270L145,278.3333333333333C145,286.6666666666667,145,303.3333333333333,145,320C145,336.6666666666667,145,353.3333333333333,145,361.6666666666667L145,370" class="er relationshipLine"/><path marker-start="url(#ONE_OR_MORE_START)" marker-end="url(#ONE_OR_MORE_END)" fill="none" stroke="gray" d="M145,445L145,453.3333333333333C145,461.6666666666667,145,478.3333333333333,145,495C145,511.6666666666667,145,528.3333333333334,145,536.6666666666666L145,545" class="er relationshipLine"/><path marker-start="url(#ONE_OR_MORE_START)" marker-end="url(#ONE_OR_MORE_END)" fill="none" stroke="gray" d="M112.85714285714286,620L105.71428571428572,628.3333333333334C98.57142857142857,636.6666666666666,84.28571428571429,653.3333333333334,77.14285714285715,670C70,686.6666666666666,70,703.3333333333334,70,711.6666666666666L70,720" class="er relationshipLine"/><path marker-start="url(#ZERO_OR_MORE_START)" marker-end="url(#ZERO_OR_MORE_END)" fill="none" stroke="gray" d="M70,795L70,803.3333333333334C70,811.6666666666666,70,828.3333333333334,77.14285714285715,845C84.28571428571429,861.6666666666666,98.57142857142857,878.3333333333334,105.71428571428572,886.6666666666666L112.85714285714286,895" class="er relationshipLine"/><path marker-start="url(#ZERO_OR_MORE_START)" marker-end="url(#ZERO_OR_MORE_END)" fill="none" stroke="gray" d="M177.14285714285714,620L184.2857142857143,628.3333333333334C191.42857142857142,636.6666666666666,205.7142857142857,653.3333333333334,212.85714285714286,676.25C220,699.1666666666666,220,728.3333333333334,220,757.5C220,786.6666666666666,220,815.8333333333334,212.85714285714286,838.75C205.7142857142857,861.6666666666666,191.42857142857142,878.3333333333334,184.2857142857143,886.6666666666666L177.14285714285714,895" class="er relationshipLine"/><g transform="translate(95,20 )" id="DOMAIN"><rect height="75" width="100" y="0" x="0" stroke="gray" fill-opacity="100%" fill="honeydew" class="er entityBox"/><text transform="translate(50,37.5)" style="font-family: &quot;trebuchet ms&quot;, verdana, arial, sans-serif;; font-size: 12px" text-anchor="middle" dominant-baseline="middle" y="0" x="0" id="entity-DOMAIN" class="er entityLabel">DOMAIN</text></g><g transform="translate(95,195 )" id="COLLECTION"><rect height="75" width="100" y="0" x="0" stroke="gray" fill-opacity="100%" fill="honeydew" class="er entityBox"/><text transform="translate(50,37.5)" style="font-family: &quot;trebuchet ms&quot;, verdana, arial, sans-serif;; font-size: 12px" text-anchor="middle" dominant-baseline="middle" y="0" x="0" id="entity-COLLECTION" class="er entityLabel">COLLECTION</text></g><g transform="translate(95,370 )" id="PATH"><rect height="75" width="100" y="0" x="0" stroke="gray" fill-opacity="100%" fill="honeydew" class="er entityBox"/><text transform="translate(50,37.5)" style="font-family: &quot;trebuchet ms&quot;, verdana, arial, sans-serif;; font-size: 12px" text-anchor="middle" dominant-baseline="middle" y="0" x="0" id="entity-PATH" class="er entityLabel">PATH</text></g><g transform="translate(95,545 )" id="ARTIFACT"><rect height="75" width="100" y="0" x="0" stroke="gray" fill-opacity="100%" fill="honeydew" class="er entityBox"/><text transform="translate(50,37.5)" style="font-family: &quot;trebuchet ms&quot;, verdana, arial, sans-serif;; font-size: 12px" text-anchor="middle" dominant-baseline="middle" y="0" x="0" id="entity-ARTIFACT" class="er entityLabel">ARTIFACT</text></g><g transform="translate(20,720 )" id="UNIT"><rect height="75" width="100" y="0" x="0" stroke="gray" fill-opacity="100%" fill="honeydew" class="er entityBox"/><text transform="translate(50,37.5)" style="font-family: &quot;trebuchet ms&quot;, verdana, arial, sans-serif;; font-size: 12px" text-anchor="middle" dominant-baseline="middle" y="0" x="0" id="entity-UNIT" class="er entityLabel">UNIT</text></g><g transform="translate(95,895 )" id="COMPONENT"><rect height="75" width="100" y="0" x="0" stroke="gray" fill-opacity="100%" fill="honeydew" class="er entityBox"/><text transform="translate(50,37.5)" style="font-family: &quot;trebuchet ms&quot;, verdana, arial, sans-serif;; font-size: 12px" text-anchor="middle" dominant-baseline="middle" y="0" x="0" id="entity-COMPONENT" class="er entityLabel">COMPONENT</text></g><rect fill-opacity="85%" fill="white" height="14" width="44.84375" y="138" x="122.578125" class="er relationshipLabelBox"/><text style="font-family: &quot;trebuchet ms&quot;, verdana, arial, sans-serif;; font-size: 12px" dominant-baseline="middle" text-anchor="middle" y="145" x="145" id="rel1" class="er relationshipLabel">contains</text><rect fill-opacity="85%" fill="white" height="14" width="44.84375" y="313" x="122.578125" class="er relationshipLabelBox"/><text style="font-family: &quot;trebuchet ms&quot;, verdana, arial, sans-serif;; font-size: 12px" dominant-baseline="middle" text-anchor="middle" y="320" x="145" id="rel2" class="er relationshipLabel">contains</text><rect fill-opacity="85%" fill="white" height="14" width="44.84375" y="488" x="122.578125" class="er relationshipLabelBox"/><text style="font-family: &quot;trebuchet ms&quot;, verdana, arial, sans-serif;; font-size: 12px" dominant-baseline="middle" text-anchor="middle" y="495" x="145" id="rel3" class="er relationshipLabel">contains</text><rect fill-opacity="85%" fill="white" height="14" width="44.84375" y="658.125732421875" x="57.004554748535156" class="er relationshipLabelBox"/><text style="font-family: &quot;trebuchet ms&quot;, verdana, arial, sans-serif;; font-size: 12px" dominant-baseline="middle" text-anchor="middle" y="665.125732421875" x="79.42642974853516" id="rel4" class="er relationshipLabel">contains</text><rect fill-opacity="85%" fill="white" height="14" width="44.84375" y="842.8743286132812" x="57.004554748535156" class="er relationshipLabelBox"/><text style="font-family: &quot;trebuchet ms&quot;, verdana, arial, sans-serif;; font-size: 12px" dominant-baseline="middle" text-anchor="middle" y="849.8743286132812" x="79.42642974853516" id="rel5" class="er relationshipLabel">contains</text><rect fill-opacity="85%" fill="white" height="14" width="44.84375" y="750.5000610351562" x="197.578125" class="er relationshipLabelBox"/><text style="font-family: &quot;trebuchet ms&quot;, verdana, arial, sans-serif;; font-size: 12px" dominant-baseline="middle" text-anchor="middle" y="757.5000610351562" x="220" id="rel6" class="er relationshipLabel">contains</text></svg>