<svg aria-labelledby="chart-title-mermaid-1660605227995 chart-desc-mermaid-1660605227995" role="img" viewBox="0 0 450.1875 1340" style="max-width: 450.188px; background-color: rgb(255, 255, 255);" height="1340" xmlns="http://www.w3.org/2000/svg" width="100%" id="mermaid-1660605227995"><title id="chart-title-mermaid-1660605227995"/><desc id="chart-desc-mermaid-1660605227995"/><style>#mermaid-1660605227995 {font-family:"trebuchet ms",verdana,arial,sans-serif;font-size:16px;fill:#333;}#mermaid-1660605227995 .error-icon{fill:#552222;}#mermaid-1660605227995 .error-text{fill:#552222;stroke:#552222;}#mermaid-1660605227995 .edge-thickness-normal{stroke-width:2px;}#mermaid-1660605227995 .edge-thickness-thick{stroke-width:3.5px;}#mermaid-1660605227995 .edge-pattern-solid{stroke-dasharray:0;}#mermaid-1660605227995 .edge-pattern-dashed{stroke-dasharray:3;}#mermaid-1660605227995 .edge-pattern-dotted{stroke-dasharray:2;}#mermaid-1660605227995 .marker{fill:#333333;stroke:#333333;}#mermaid-1660605227995 .marker.cross{stroke:#333333;}#mermaid-1660605227995 svg{font-family:"trebuchet ms",verdana,arial,sans-serif;font-size:16px;}#mermaid-1660605227995 .entityBox{fill:#ECECFF;stroke:#9370DB;}#mermaid-1660605227995 .attributeBoxOdd{fill:#ffffff;stroke:#9370DB;}#mermaid-1660605227995 .attributeBoxEven{fill:#f2f2f2;stroke:#9370DB;}#mermaid-1660605227995 .relationshipLabelBox{fill:hsl(80, 100%, 96.2745098039%);opacity:0.7;background-color:hsl(80, 100%, 96.2745098039%);}#mermaid-1660605227995 .relationshipLabelBox rect{opacity:0.5;}#mermaid-1660605227995 .relationshipLine{stroke:#333333;}#mermaid-1660605227995 :root{--mermaid-font-family:"trebuchet ms",verdana,arial,sans-serif;}</style><g/><defs><marker orient="auto" markerHeight="18" markerWidth="18" refY="9" refX="0" id="ONLY_ONE_START"><path d="M9,0 L9,18 M15,0 L15,18" fill="none" stroke="gray"/></marker></defs><defs><marker orient="auto" markerHeight="18" markerWidth="18" refY="9" refX="18" id="ONLY_ONE_END"><path d="M3,0 L3,18 M9,0 L9,18" fill="none" stroke="gray"/></marker></defs><defs><marker orient="auto" markerHeight="18" markerWidth="30" refY="9" refX="0" id="ZERO_OR_ONE_START"><circle r="6" cy="9" cx="21" fill="white" stroke="gray"/><path d="M9,0 L9,18" fill="none" stroke="gray"/></marker></defs><defs><marker orient="auto" markerHeight="18" markerWidth="30" refY="9" refX="30" id="ZERO_OR_ONE_END"><circle r="6" cy="9" cx="9" fill="white" stroke="gray"/><path d="M21,0 L21,18" fill="none" stroke="gray"/></marker></defs><defs><marker orient="auto" markerHeight="36" markerWidth="45" refY="18" refX="18" id="ONE_OR_MORE_START"><path d="M0,18 Q 18,0 36,18 Q 18,36 0,18 M42,9 L42,27" fill="none" stroke="gray"/></marker></defs><defs><marker orient="auto" markerHeight="36" markerWidth="45" refY="18" refX="27" id="ONE_OR_MORE_END"><path d="M3,9 L3,27 M9,18 Q27,0 45,18 Q27,36 9,18" fill="none" stroke="gray"/></marker></defs><defs><marker orient="auto" markerHeight="36" markerWidth="57" refY="18" refX="18" id="ZERO_OR_MORE_START"><circle r="6" cy="18" cx="48" fill="white" stroke="gray"/><path d="M0,18 Q18,0 36,18 Q18,36 0,18" fill="none" stroke="gray"/></marker></defs><defs><marker orient="auto" markerHeight="36" markerWidth="57" refY="18" refX="39" id="ZERO_OR_MORE_END"><circle r="6" cy="18" cx="9" fill="white" stroke="gray"/><path d="M21,18 Q39,0 57,18 Q39,36 21,18" fill="none" stroke="gray"/></marker></defs><path marker-start="url(#ZERO_OR_ONE_START)" marker-end="url(#ZERO_OR_ONE_END)" fill="none" stroke="gray" d="M224.500002179827,95L234.34722446259994,103.33333333333333C244.19444674537294,111.66666666666667,263.8888913109189,128.33333333333334,273.73611359369187,145C283.58333587646484,161.66666666666666,283.58333587646484,178.33333333333334,283.58333587646484,186.66666666666666L283.58333587646484,195" class="er relationshipLine"/><path marker-start="url(#ZERO_OR_ONE_START)" marker-end="url(#ZERO_OR_ONE_END)" fill="none" stroke="gray" d="M135.87500163487027,95L126.0277793520973,103.33333333333333C116.18055706932432,111.66666666666667,96.48611250377837,128.33333333333334,86.6388902210054,151.25C76.79166793823242,174.16666666666666,76.79166793823242,203.33333333333334,76.79166793823242,232.5C76.79166793823242,261.6666666666667,76.79166793823242,290.8333333333333,76.79166793823242,320C76.79166793823242,349.1666666666667,76.79166793823242,378.3333333333333,76.79166793823242,407.5C76.79166793823242,436.6666666666667,76.79166793823242,465.8333333333333,76.79166793823242,488.75C76.79166793823242,511.6666666666667,76.79166793823242,528.3333333333334,76.79166793823242,536.6666666666666L76.79166793823242,545" class="er relationshipLine"/><path marker-start="url(#ZERO_OR_ONE_START)" marker-end="url(#ZERO_OR_ONE_END)" fill="none" stroke="gray" d="M283.58333587646484,270L283.58333587646484,278.3333333333333C283.58333587646484,286.6666666666667,283.58333587646484,303.3333333333333,283.58333587646484,320C283.58333587646484,336.6666666666667,283.58333587646484,353.3333333333333,283.58333587646484,361.6666666666667L283.58333587646484,370" class="er relationshipLine"/><path marker-start="url(#ZERO_OR_ONE_START)" marker-end="url(#ZERO_OR_ONE_END)" fill="none" stroke="gray" d="M76.79166793823242,620L76.79166793823242,628.3333333333334C76.79166793823242,636.6666666666666,76.79166793823242,653.3333333333334,86.6388902210054,670C96.48611250377837,686.6666666666666,116.18055706932432,703.3333333333334,126.0277793520973,711.6666666666666L135.87500163487027,720" class="er relationshipLine"/><path marker-start="url(#ZERO_OR_ONE_START)" marker-end="url(#ZERO_OR_ONE_END)" fill="none" stroke="gray" d="M283.58333587646484,445L283.58333587646484,453.3333333333333C283.58333587646484,461.6666666666667,283.58333587646484,478.3333333333333,283.58333587646484,495C283.58333587646484,511.6666666666667,283.58333587646484,528.3333333333334,283.58333587646484,536.6666666666666L283.58333587646484,545" class="er relationshipLine"/><path marker-start="url(#ONE_OR_MORE_START)" marker-end="url(#ONE_OR_MORE_END)" fill="none" stroke="gray" d="M283.58333587646484,620L283.58333587646484,628.3333333333334C283.58333587646484,636.6666666666666,283.58333587646484,653.3333333333334,273.73611359369187,670C263.8888913109189,686.6666666666666,244.19444674537294,703.3333333333334,234.34722446259994,711.6666666666666L224.500002179827,720" class="er relationshipLine"/><path marker-start="url(#ONE_OR_MORE_START)" marker-end="url(#ONE_OR_MORE_END)" fill="none" stroke="gray" d="M180.18750190734863,795L180.18750190734863,803.3333333333334C180.18750190734863,811.6666666666666,180.18750190734863,828.3333333333334,189.71131143115815,845C199.23512095496767,861.6666666666666,218.2827400025867,878.3333333333334,227.80654952639622,886.6666666666666L237.33035905020577,895" class="er relationshipLine"/><path marker-start="url(#ONE_OR_MORE_START)" marker-end="url(#ONE_OR_MORE_END)" fill="none" stroke="gray" d="M248.0446447644915,970L240.90178762163433,978.3333333333334C233.75893047877722,986.6666666666666,219.47321619306294,1003.3333333333334,212.33035905020577,1020C205.18750190734863,1036.6666666666667,205.18750190734863,1053.3333333333333,205.18750190734863,1061.6666666666667L205.18750190734863,1070" class="er relationshipLine"/><path marker-start="url(#ZERO_OR_MORE_START)" marker-end="url(#ZERO_OR_MORE_END)" fill="none" stroke="gray" d="M205.18750190734863,1145L205.18750190734863,1153.3333333333333C205.18750190734863,1161.6666666666667,205.18750190734863,1178.3333333333333,212.33035905020577,1195C219.47321619306294,1211.6666666666667,233.75893047877722,1228.3333333333333,240.90178762163438,1236.6666666666667L248.0446447644915,1245" class="er relationshipLine"/><path marker-start="url(#ZERO_OR_MORE_START)" marker-end="url(#ZERO_OR_MORE_END)" fill="none" stroke="gray" d="M312.3303590502058,970L319.4732161930629,978.3333333333334C326.6160733359201,986.6666666666666,340.90178762163436,1003.3333333333334,348.04464476449147,1026.25C355.18750190734863,1049.1666666666667,355.18750190734863,1078.3333333333333,355.18750190734863,1107.5C355.18750190734863,1136.6666666666667,355.18750190734863,1165.8333333333333,348.0446447644915,1188.75C340.90178762163436,1211.6666666666667,326.6160733359201,1228.3333333333333,319.4732161930629,1236.6666666666667L312.3303590502058,1245" class="er relationshipLine"/><path marker-start="url(#ZERO_OR_ONE_START)" marker-end="url(#ZERO_OR_MORE_END)" fill="none" stroke="gray" d="M380.18750190734863,795L380.18750190734863,803.3333333333334C380.18750190734863,811.6666666666666,380.18750190734863,828.3333333333334,370.66369238353906,845C361.1398828597296,861.6666666666666,342.09226381211056,878.3333333333334,332.568454288301,886.6666666666666L323.04464476449147,895" class="er relationshipLine"/><g transform="translate(130.18750190734863,20 )" id="PORTFOLIO"><rect height="75" width="100" y="0" x="0" stroke="gray" fill-opacity="100%" fill="honeydew" class="er entityBox"/><text transform="translate(50,37.5)" style="font-family: &quot;trebuchet ms&quot;, verdana, arial, sans-serif;; font-size: 12px" text-anchor="middle" dominant-baseline="middle" y="0" x="0" id="entity-PORTFOLIO" class="er entityLabel">PORTFOLIO</text></g><g transform="translate(233.58333587646484,195 )" id="DOCDESIGN"><rect height="75" width="100" y="0" x="0" stroke="gray" fill-opacity="100%" fill="honeydew" class="er entityBox"/><text transform="translate(50,37.5)" style="font-family: &quot;trebuchet ms&quot;, verdana, arial, sans-serif;; font-size: 12px" text-anchor="middle" dominant-baseline="middle" y="0" x="0" id="entity-DOCDESIGN" class="er entityLabel">DOCDESIGN</text></g><g transform="translate(20,545 )" id="MODULEDESIGN"><rect height="75" width="113.58333587646484" y="0" x="0" stroke="gray" fill-opacity="100%" fill="honeydew" class="er entityBox"/><text transform="translate(56.79166793823242,37.5)" style="font-family: &quot;trebuchet ms&quot;, verdana, arial, sans-serif;; font-size: 12px" text-anchor="middle" dominant-baseline="middle" y="0" x="0" id="entity-MODULEDESIGN" class="er entityLabel">MODULEDESIGN</text></g><g transform="translate(233.58333587646484,370 )" id="DOMAIN"><rect height="75" width="100" y="0" x="0" stroke="gray" fill-opacity="100%" fill="honeydew" class="er entityBox"/><text transform="translate(50,37.5)" style="font-family: &quot;trebuchet ms&quot;, verdana, arial, sans-serif;; font-size: 12px" text-anchor="middle" dominant-baseline="middle" y="0" x="0" id="entity-DOMAIN" class="er entityLabel">DOMAIN</text></g><g transform="translate(130.18750190734863,720 )" id="PATH"><rect height="75" width="100" y="0" x="0" stroke="gray" fill-opacity="100%" fill="honeydew" class="er entityBox"/><text transform="translate(50,37.5)" style="font-family: &quot;trebuchet ms&quot;, verdana, arial, sans-serif;; font-size: 12px" text-anchor="middle" dominant-baseline="middle" y="0" x="0" id="entity-PATH" class="er entityLabel">PATH</text></g><g transform="translate(233.58333587646484,545 )" id="COLLECTION"><rect height="75" width="100" y="0" x="0" stroke="gray" fill-opacity="100%" fill="honeydew" class="er entityBox"/><text transform="translate(50,37.5)" style="font-family: &quot;trebuchet ms&quot;, verdana, arial, sans-serif;; font-size: 12px" text-anchor="middle" dominant-baseline="middle" y="0" x="0" id="entity-COLLECTION" class="er entityLabel">COLLECTION</text></g><g transform="translate(230.18750190734863,895 )" id="ARTIFACT"><rect height="75" width="100" y="0" x="0" stroke="gray" fill-opacity="100%" fill="honeydew" class="er entityBox"/><text transform="translate(50,37.5)" style="font-family: &quot;trebuchet ms&quot;, verdana, arial, sans-serif;; font-size: 12px" text-anchor="middle" dominant-baseline="middle" y="0" x="0" id="entity-ARTIFACT" class="er entityLabel">ARTIFACT</text></g><g transform="translate(155.18750190734863,1070 )" id="UNIT"><rect height="75" width="100" y="0" x="0" stroke="gray" fill-opacity="100%" fill="honeydew" class="er entityBox"/><text transform="translate(50,37.5)" style="font-family: &quot;trebuchet ms&quot;, verdana, arial, sans-serif;; font-size: 12px" text-anchor="middle" dominant-baseline="middle" y="0" x="0" id="entity-UNIT" class="er entityLabel">UNIT</text></g><g transform="translate(230.18750190734863,1245 )" id="COMPONENT"><rect height="75" width="100" y="0" x="0" stroke="gray" fill-opacity="100%" fill="honeydew" class="er entityBox"/><text transform="translate(50,37.5)" style="font-family: &quot;trebuchet ms&quot;, verdana, arial, sans-serif;; font-size: 12px" text-anchor="middle" dominant-baseline="middle" y="0" x="0" id="entity-COMPONENT" class="er entityLabel">COMPONENT</text></g><g transform="translate(330.18750190734863,720 )" id="ARCHTYPE"><rect height="75" width="100" y="0" x="0" stroke="gray" fill-opacity="100%" fill="honeydew" class="er entityBox"/><text transform="translate(50,37.5)" style="font-family: &quot;trebuchet ms&quot;, verdana, arial, sans-serif;; font-size: 12px" text-anchor="middle" dominant-baseline="middle" y="0" x="0" id="entity-ARCHTYPE" class="er entityLabel">ARCHTYPE</text></g><rect fill-opacity="85%" fill="white" height="14" width="44.84375" y="130.22747802734375" x="246.05841064453125" class="er relationshipLabelBox"/><text style="font-family: &quot;trebuchet ms&quot;, verdana, arial, sans-serif;; font-size: 12px" dominant-baseline="middle" text-anchor="middle" y="137.22747802734375" x="268.48028564453125" id="rel657" class="er relationshipLabel">contains</text><rect fill-opacity="85%" fill="white" height="14" width="44.84375" y="302.7933349609375" x="54.369789123535156" class="er relationshipLabelBox"/><text style="font-family: &quot;trebuchet ms&quot;, verdana, arial, sans-serif;; font-size: 12px" dominant-baseline="middle" text-anchor="middle" y="309.7933349609375" x="76.79166412353516" id="rel658" class="er relationshipLabel">contains</text><rect fill-opacity="85%" fill="white" height="14" width="39.052085876464844" y="313" x="264.05730056762695" class="er relationshipLabelBox"/><text style="font-family: &quot;trebuchet ms&quot;, verdana, arial, sans-serif;; font-size: 12px" dominant-baseline="middle" text-anchor="middle" y="320" x="283.5833435058594" id="rel659" class="er relationshipLabel">defines</text><rect fill-opacity="85%" fill="white" height="14" width="39.052085876464844" y="670.7725219726562" x="72.36867141723633" class="er relationshipLabelBox"/><text style="font-family: &quot;trebuchet ms&quot;, verdana, arial, sans-serif;; font-size: 12px" dominant-baseline="middle" text-anchor="middle" y="677.7725219726562" x="91.89471435546875" id="rel660" class="er relationshipLabel">defines</text><rect fill-opacity="85%" fill="white" height="14" width="44.84375" y="488" x="261.1614685058594" class="er relationshipLabelBox"/><text style="font-family: &quot;trebuchet ms&quot;, verdana, arial, sans-serif;; font-size: 12px" dominant-baseline="middle" text-anchor="middle" y="495" x="283.5833435058594" id="rel661" class="er relationshipLabel">contains</text><rect fill-opacity="85%" fill="white" height="14" width="44.84375" y="670.7725219726562" x="246.05841064453125" class="er relationshipLabelBox"/><text style="font-family: &quot;trebuchet ms&quot;, verdana, arial, sans-serif;; font-size: 12px" dominant-baseline="middle" text-anchor="middle" y="677.7725219726562" x="268.48028564453125" id="rel662" class="er relationshipLabel">contains</text><rect fill-opacity="85%" fill="white" height="14" width="44.84375" y="845.4354248046875" x="172.12744140625" class="er relationshipLabelBox"/><text style="font-family: &quot;trebuchet ms&quot;, verdana, arial, sans-serif;; font-size: 12px" dominant-baseline="middle" text-anchor="middle" y="852.4354248046875" x="194.54931640625" id="rel663" class="er relationshipLabel">contains</text><rect fill-opacity="85%" fill="white" height="14" width="44.84375" y="1008.1256713867188" x="192.19204711914062" class="er relationshipLabelBox"/><text style="font-family: &quot;trebuchet ms&quot;, verdana, arial, sans-serif;; font-size: 12px" dominant-baseline="middle" text-anchor="middle" y="1015.1256713867188" x="214.61392211914062" id="rel664" class="er relationshipLabel">contains</text><rect fill-opacity="85%" fill="white" height="14" width="44.84375" y="1192.874267578125" x="192.19204711914062" class="er relationshipLabelBox"/><text style="font-family: &quot;trebuchet ms&quot;, verdana, arial, sans-serif;; font-size: 12px" dominant-baseline="middle" text-anchor="middle" y="1199.874267578125" x="214.61392211914062" id="rel665" class="er relationshipLabel">contains</text><rect fill-opacity="85%" fill="white" height="14" width="44.84375" y="1100.5" x="332.765625" class="er relationshipLabelBox"/><text style="font-family: &quot;trebuchet ms&quot;, verdana, arial, sans-serif;; font-size: 12px" dominant-baseline="middle" text-anchor="middle" y="1107.5" x="355.1875" id="rel666" class="er relationshipLabel">contains</text><rect fill-opacity="85%" fill="white" height="14" width="48.59049606323242" y="845.4354248046875" x="341.5304355621338" class="er relationshipLabelBox"/><text style="font-family: &quot;trebuchet ms&quot;, verdana, arial, sans-serif;; font-size: 12px" dominant-baseline="middle" text-anchor="middle" y="852.4354248046875" x="365.82568359375" id="rel667" class="er relationshipLabel">based-on</text></svg>